<?xml version="1.0" encoding="UTF-8" standalone="no"?>
<!-- Created with Inkscape (http://www.inkscape.org/) -->

<svg
   xmlns:dc="http://purl.org/dc/elements/1.1/"
   xmlns:cc="http://creativecommons.org/ns#"
   xmlns:rdf="http://www.w3.org/1999/02/22-rdf-syntax-ns#"
   xmlns:svg="http://www.w3.org/2000/svg"
   xmlns="http://www.w3.org/2000/svg"
   xmlns:sodipodi="http://sodipodi.sourceforge.net/DTD/sodipodi-0.dtd"
   xmlns:inkscape="http://www.inkscape.org/namespaces/inkscape"
   width="10cm"
   height="10cm"
   viewBox="0 0 100 99.999997"
   version="1.1"
   id="svg8"
   inkscape:version="0.92.3 (2405546, 2018-03-11)"
   sodipodi:docname="a_rash_vector.svg">
  <defs
     id="defs2" />
  <sodipodi:namedview
     id="base"
     pagecolor="#ffffff"
     bordercolor="#666666"
     borderopacity="1.0"
     inkscape:pageopacity="0.0"
     inkscape:pageshadow="2"
     inkscape:zoom="0.35"
     inkscape:cx="-482.85714"
     inkscape:cy="560"
     inkscape:document-units="mm"
     inkscape:current-layer="layer1"
     showgrid="false"
     units="cm"
     inkscape:window-width="1680"
     inkscape:window-height="1027"
     inkscape:window-x="1358"
     inkscape:window-y="-8"
     inkscape:window-maximized="1" />
  <metadata
     id="metadata5">
    <rdf:RDF>
      <cc:Work
         rdf:about="">
        <dc:format>image/svg+xml</dc:format>
        <dc:type
           rdf:resource="http://purl.org/dc/dcmitype/StillImage" />
        <dc:title></dc:title>
      </cc:Work>
    </rdf:RDF>
  </metadata>
  <g
     inkscape:label="Capa 1"
     inkscape:groupmode="layer"
     id="layer1"
     transform="translate(0,-197.00002)">
    <path
       style="fill:#000000;stroke-width:0.26458332"
       d="m 50.341753,287.22971 c -0.241459,-0.13512 -0.93154,-1.02554 -1.533517,-1.9787 -0.601975,-0.95316 -1.27743,-1.80322 -1.501011,-1.88901 -0.266946,-0.10244 -0.969142,0.40164 -2.045311,1.46824 -2.296117,2.27571 -2.551041,2.21482 -3.807417,-0.90943 -0.452816,-1.12602 -0.907963,-1.85946 -1.187302,-1.91325 -0.249145,-0.048 -1.215247,0.4567 -2.146893,1.1215 -0.931645,0.66481 -1.884396,1.20875 -2.117224,1.20875 -0.647984,0 -1.167186,-1.03005 -1.371955,-2.72184 -0.101933,-0.84217 -0.379426,-1.7709 -0.616648,-2.06386 -0.42825,-0.52887 -0.445884,-0.52592 -2.483123,0.41535 -1.64833,0.76157 -2.155616,0.89244 -2.579679,0.66549 -0.54995,-0.29433 -0.600549,-0.59893 -0.532294,-3.20431 0.05814,-2.21924 -0.240155,-2.41104 -2.81783,-1.81182 -3.091838,0.71873 -3.438612,0.38283 -2.723955,-2.63855 0.255871,-1.08176 0.409583,-2.11182 0.341581,-2.28903 -0.180128,-0.46941 -1.036145,-0.62693 -2.47855,-0.4561 -2.990159,0.35414 -3.468492,-0.34297 -2.203516,-3.21133 1.100064,-2.49442 1.018555,-2.66188 -1.503759,-3.08945 -1.798779,-0.30491 -2.896634,-0.82118 -2.897652,-1.36263 -3.44e-4,-0.17854 0.54504,-1.12381 1.211948,-2.10058 0.666907,-0.97678 1.172093,-1.98608 1.122635,-2.24289 -0.05742,-0.29819 -0.721889,-0.70993 -1.838522,-1.13926 -1.978212,-0.76061 -2.612117,-1.20046 -2.612117,-1.81249 0,-0.23293 0.74243,-1.17259 1.649846,-2.08815 1.928055,-1.94534 1.913106,-2.05957 -0.459221,-3.50897 -2.633425,-1.60892 -2.618617,-2.07317 0.122161,-3.82996 1.024218,-0.65651 1.862214,-1.34006 1.862214,-1.519 0,-0.17894 -0.729994,-1.06188 -1.622209,-1.9621 -2.178828,-2.19837 -2.089305,-2.63724 0.75642,-3.70825 1.352311,-0.50895 2.083098,-0.93084 2.141979,-1.23658 0.04915,-0.25524 -0.468149,-1.28004 -1.149563,-2.27732 -0.894547,-1.30922 -1.190899,-1.9646 -1.066122,-2.35773 0.196946,-0.62052 0.397056,-0.69861 2.863488,-1.11741 2.395218,-0.4067 2.513372,-0.67904 1.376608,-3.17299 -0.783053,-1.71794 -0.852478,-2.03551 -0.546128,-2.49809 0.29787,-0.44977 0.692811,-0.54145 2.610564,-0.60604 1.359626,-0.0458 2.365551,-0.20386 2.525618,-0.39687 0.181241,-0.21855 0.115369,-0.95319 -0.206695,-2.30516 -0.733887,-3.08074 -0.33645,-3.47412 2.719114,-2.69136 2.632372,0.67436 2.860673,0.47663 2.786074,-2.41293 -0.05109,-1.97878 0.230187,-2.83349 0.932309,-2.833 0.164084,1.2e-4 1.053163,0.3573 1.975736,0.79375 2.648498,1.25295 2.954944,1.09367 3.355856,-1.74418 0.215728,-1.52703 0.751319,-2.48936 1.385467,-2.48936 0.249372,0 1.237073,0.54033 2.194888,1.20073 1.068089,0.73643 1.903714,1.13848 2.161027,1.03973 0.230748,-0.0885 0.686591,-0.89676 1.012986,-1.79604 1.100966,-3.03337 2.037233,-3.26426 3.95387,-0.97503 1.536245,1.83487 2.022903,1.78083 3.431426,-0.38105 1.540131,-2.3639 1.722445,-2.48574 2.55407,-1.70687 0.372407,0.34879 1.051576,1.25923 1.509266,2.02322 0.571243,0.95353 1.00227,1.38906 1.374698,1.38906 0.307033,0 1.166365,-0.63168 1.979668,-1.45521 1.424612,-1.44253 2.373368,-1.82158 2.828655,-1.13012 0.117729,0.17881 0.512447,1.08903 0.877152,2.02272 0.939924,2.40634 1.14455,2.46829 3.293247,0.99705 2.685656,-1.83891 3.109566,-1.68624 3.585226,1.29127 0.161451,1.01065 0.474136,2.0371 0.694857,2.28099 0.372956,0.41211 0.541149,0.37971 2.380951,-0.45871 2.275514,-1.03699 2.302306,-1.04155 2.85747,-0.48638 0.312449,0.31244 0.415775,0.97204 0.415775,2.65413 0,2.69263 0.05057,2.73127 2.787821,2.1298 1.07395,-0.23598 2.13166,-0.36036 2.35046,-0.2764 0.67045,0.25728 0.75026,1.1184 0.2811,3.03286 -0.24703,1.00804 -0.38056,2.01153 -0.29674,2.22998 0.11892,0.30988 0.64443,0.39719 2.39078,0.39719 1.6821,0 2.34169,0.10332 2.65414,0.41577 0.55551,0.55551 0.5402,0.66724 -0.37798,2.75923 -0.43656,0.99466 -0.79375,1.92278 -0.79375,2.06247 0,0.49195 0.73736,0.8553 2.27881,1.12292 3.2015,0.55583 3.40319,1.02812 1.56376,3.66177 -1.59293,2.28073 -1.49847,2.41644 2.68856,3.86261 0.17238,0.0595 0.4465,0.35692 0.60916,0.66084 0.26085,0.48741 0.10684,0.74931 -1.30561,2.22023 -0.88074,0.9172 -1.60135,1.89803 -1.60135,2.17961 0,0.34796 0.58524,0.87311 1.82689,1.6393 1.00479,0.62003 1.90063,1.31948 1.99076,1.55434 0.21754,0.56689 -0.43353,1.24733 -2.28981,2.39308 -1.97636,1.21989 -2.005,1.74197 -0.17937,3.27047 2.33047,1.95118 2.23843,2.7633 -0.41955,3.70165 -0.95276,0.33635 -1.92772,0.8275 -2.16659,1.09145 -0.40738,0.45015 -0.35787,0.59076 0.79856,2.26799 1.82844,2.65189 1.66228,3.24356 -1.01609,3.61831 -3.0102,0.42118 -3.15413,0.65241 -1.99595,3.20671 0.95073,2.09678 0.96725,2.26811 0.27882,2.89113 -0.44072,0.39884 -0.8244,0.4515 -2.35477,0.3232 -1.29841,-0.10885 -1.96566,-0.0528 -2.30235,0.19339 -0.45535,0.33295 -0.45457,0.43207 0.0197,2.50855 0.48585,2.12723 0.48556,2.17011 -0.0179,2.6736 -0.50473,0.50473 -0.54042,0.50484 -2.6241,0.008 -1.449274,-0.34529 -2.213658,-0.41925 -2.43494,-0.2356 -0.195074,0.1619 -0.352604,1.16063 -0.398629,2.52728 -0.06459,1.91789 -0.156117,2.31211 -0.605261,2.60686 -0.459348,0.30145 -0.790985,0.23108 -2.513541,-0.53334 -2.430079,-1.07841 -2.791169,-0.96277 -3.035599,0.97212 -0.461021,3.64944 -0.997754,3.96934 -3.635727,2.16689 -1.415216,-0.96697 -1.949278,-1.20289 -2.267968,-1.00187 -0.22927,0.14462 -0.785355,1.14813 -1.235747,2.23001 -1.104784,2.6538 -1.572628,2.72037 -3.682392,0.52392 -0.84505,-0.87976 -1.690245,-1.59955 -1.878226,-1.59955 -0.187979,0 -0.836798,0.75978 -1.441818,1.6884 -1.397765,2.14537 -1.87053,2.58286 -2.444173,2.26183 z m 3.614346,-11.10385 c 2.768147,-0.31398 5.850249,-1.10235 7.528149,-1.92562 l 1.178153,-0.57806 0.610285,-2.88631 c 0.912955,-4.31778 1.077129,-4.42935 5.265782,-3.57846 l 2.993152,0.60804 1.134113,-1.28786 c 0.623763,-0.70833 1.369205,-1.58645 1.656535,-1.95138 0.494215,-0.6277 0.495749,-0.65328 0.02839,-0.47394 -1.169181,0.44865 -7.102687,0.7173 -9.794727,0.44347 -5.596363,-0.56927 -6.884392,-1.40211 -8.477019,-5.48129 -0.556205,-1.4246 -1.507977,-3.78081 -2.11505,-5.23602 l -1.103773,-2.64583 h -5.40512 -5.40512 l -0.837036,1.7369 c -1.386165,2.87637 -1.468284,2.74905 1.829223,2.83611 l 2.844271,0.0751 v 4.22439 4.22438 h -9.260416 c -5.093229,0 -9.260417,0.0913 -9.260417,0.20298 0,0.49807 2.465785,2.97202 2.962212,2.97202 0.296958,0 1.508117,-0.19913 2.69146,-0.44252 2.411778,-0.49605 3.412398,-0.36464 3.995079,0.52464 0.217265,0.33159 0.636709,1.77749 0.932101,3.21311 0.295388,1.43561 0.668451,2.76851 0.829029,2.96199 0.355518,0.42837 4.531905,1.78783 6.714077,2.18551 3.062589,0.55811 5.341633,0.63312 8.466667,0.27865 z m -19.686952,-2.25177 c 1.960821,-1.01397 1.469792,-3.83369 -0.739794,-4.24821 -0.761979,-0.14295 -1.031499,-0.0511 -1.683467,0.57349 -1.102243,1.05602 -1.086707,2.45308 0.03781,3.39929 0.944243,0.79453 1.301795,0.83582 2.385455,0.27543 z m 35.185428,-0.36385 c 0.971886,-0.97188 1.016775,-2.06172 0.124574,-3.02442 -1.385951,-1.49547 -3.849093,-0.50431 -3.849093,1.54886 0,2.08308 2.232531,2.96755 3.724519,1.47556 z M 30.010368,254.63833 c 0.28674,-0.61846 3.071313,-7.55385 6.187938,-15.41198 l 5.666591,-14.2875 1.679975,-0.16751 c 2.235422,-0.2229 14.211283,-0.22396 15.004541,-0.001 0.502171,0.14093 0.803667,0.66723 1.538486,2.6856 0.502653,1.38068 1.433722,3.93908 2.069039,5.68533 0.635315,1.74625 1.886032,5.13953 2.779369,7.54062 0.893336,2.4011 2.138058,5.79438 2.766049,7.54063 1.378484,3.83314 2.399572,6.16905 2.974215,6.80402 0.267984,0.29612 0.804,0.47202 1.438392,0.47202 1.459828,0 1.847519,-0.73723 2.168353,-4.12333 l 0.261117,-2.75585 h 2.736558 2.73657 v -1.8239 -1.8239 l -3.20233,-1.40211 c -2.01017,-0.88014 -3.352483,-1.63128 -3.605666,-2.01769 -0.568383,-0.86746 -0.340995,-1.86178 1.226553,-5.3634 0.741463,-1.65629 1.348103,-3.24937 1.348103,-3.54018 0,-0.6694 -2.467029,-3.90574 -4.294498,-5.63367 -3.87876,-3.6675 -9.921425,-6.86957 -14.358625,-7.60879 -1.039198,-0.17312 -1.100285,-0.13737 -3.378557,1.97729 -3.185189,2.95645 -3.423173,2.9566 -6.391158,0.004 l -2.21371,-2.20221 -2.460186,0.7057 c -3.106169,0.89099 -6.292241,2.37872 -8.785712,4.10245 -2.337892,1.61619 -6.017799,5.3361 -7.592197,7.67474 l -1.145458,1.70148 1.550469,3.00078 c 1.61064,3.11724 1.914393,4.48468 1.163087,5.23599 -0.213061,0.21306 -1.695389,0.98384 -3.294063,1.71286 l -2.90668,1.32547 0.0042,3.50888 c 0.0029,2.43236 0.15053,4.13799 0.481068,5.55941 l 0.47683,2.05052 h 3.424974 3.424974 l 0.521351,-1.12448 z m 18.975131,-13.95677 c -0.612455,-1.74625 -1.20614,-3.175 -1.319303,-3.175 -0.249983,0 -1.923452,3.62053 -2.294342,4.96378 -0.349697,1.2665 -0.145217,1.37713 2.554682,1.38217 l 2.17252,0.004 -1.113557,-3.175 z m -24.774672,-0.24423 c 0.861906,-0.86191 0.960426,-1.53704 0.386308,-2.64726 -0.437283,-0.84562 -0.881301,-1.07726 -2.064893,-1.07726 -2.235653,0 -2.866535,3.09234 -0.855309,4.19239 0.898784,0.4916 1.727429,0.33859 2.533894,-0.46787 z m 55.951044,0.12396 c 0.91032,-0.91031 0.86284,-2.08828 -0.12396,-3.07508 -0.82548,-0.82549 -1.55338,-0.96186 -2.48514,-0.4656 -2.11229,1.12501 -1.37377,4.19012 1.00958,4.19012 0.65596,0 1.15114,-0.20106 1.59952,-0.64944 z m -27.99171,-21.37672 c 1.386586,-1.29426 0.376693,-3.63843 -1.567474,-3.63843 -2.409994,0 -3.1477,3.06027 -1.004215,4.16586 0.800111,0.41269 1.779762,0.21177 2.571689,-0.52743 z"
       id="path826"
       inkscape:connector-curvature="0" />
  </g>
</svg>
