<?xml version="1.0" encoding="UTF-8" standalone="no"?>
<!-- Created with Inkscape (http://www.inkscape.org/) -->

<svg
   xmlns:dc="http://purl.org/dc/elements/1.1/"
   xmlns:cc="http://creativecommons.org/ns#"
   xmlns:rdf="http://www.w3.org/1999/02/22-rdf-syntax-ns#"
   xmlns:svg="http://www.w3.org/2000/svg"
   xmlns="http://www.w3.org/2000/svg"
   xmlns:sodipodi="http://sodipodi.sourceforge.net/DTD/sodipodi-0.dtd"
   xmlns:inkscape="http://www.inkscape.org/namespaces/inkscape"
   width="100.33512mm"
   height="78.994949mm"
   viewBox="0 0 100.33512 78.994949"
   version="1.1"
   id="svg2411"
   inkscape:version="0.92.3 (2405546, 2018-03-11)"
   sodipodi:docname="shelly_vector.svg">
  <defs
     id="defs2405" />
  <sodipodi:namedview
     id="base"
     pagecolor="#ffffff"
     bordercolor="#666666"
     borderopacity="1.0"
     inkscape:pageopacity="0.0"
     inkscape:pageshadow="2"
     inkscape:zoom="1.979899"
     inkscape:cx="180.56377"
     inkscape:cy="112.36154"
     inkscape:document-units="mm"
     inkscape:current-layer="layer1"
     showgrid="false"
     fit-margin-top="0.7"
     fit-margin-left="0.7"
     fit-margin-right="0.7"
     fit-margin-bottom="0.7"
     inkscape:window-width="1680"
     inkscape:window-height="1027"
     inkscape:window-x="1358"
     inkscape:window-y="-8"
     inkscape:window-maximized="1" />
  <metadata
     id="metadata2408">
    <rdf:RDF>
      <cc:Work
         rdf:about="">
        <dc:format>image/svg+xml</dc:format>
        <dc:type
           rdf:resource="http://purl.org/dc/dcmitype/StillImage" />
        <dc:title></dc:title>
      </cc:Work>
    </rdf:RDF>
  </metadata>
  <g
     inkscape:label="Capa 1"
     inkscape:groupmode="layer"
     id="layer1"
     transform="translate(-24.671725,-105.55609)">
    <g
       id="g1776"
       transform="matrix(0.10230159,0,0,0.10230159,102.61191,157.78379)">
      <path
         inkscape:connector-curvature="0"
         id="path1511"
         d="m -702.50937,-372.35415 c -1.81516,-0.89848 -3.18938,-3.11809 -3.21729,-5.19649 -0.0132,-0.98285 1.32776,-5.30344 3.09725,-9.97935 1.18635,-3.13499 1.19992,-3.20754 1.18701,-6.35 -0.0108,-2.63465 -0.13283,-3.58639 -0.71276,-5.56003 -1.66155,-5.6546 -5.50714,-10.11222 -11.12374,-12.89408 -2.55188,-1.26393 -4.75118,-2.0607 -10.45104,-3.78624 -6.13694,-1.85785 -9.25573,-3.15449 -12.0005,-4.98921 -2.58287,-1.72651 -4.04477,-3.18657 -5.32466,-5.31797 -1.53741,-2.56024 -2.06648,-4.7014 -1.94809,-7.88379 0.0915,-2.45856 0.18793,-2.88365 1.08049,-4.76195 1.74865,-3.67984 4.64058,-6.08797 8.67975,-7.22769 1.02378,-0.28887 3.55785,-0.47172 8.71926,-0.62915 8.08755,-0.24668 9.23439,-0.43533 12.86373,-2.11602 6.91691,-3.20312 12.08296,-9.25808 15.72827,-18.43462 0.4438,-1.1172 1.51414,-4.45368 2.37852,-7.41439 1.76734,-6.0536 2.61931,-8.12105 4.34058,-10.53318 1.39824,-1.95947 2.69288,-3.04546 4.8167,-4.04042 1.30491,-0.61133 1.89241,-0.72298 3.79303,-0.7208 2.67581,0.003 3.653,0.30068 9.12813,2.78018 5.71252,2.587 6.437,2.77219 10.84791,2.7729 4.00485,5.3e-4 6.07521,-0.44013 8.98917,-1.91379 3.81978,-1.93176 6.15679,-4.09594 10.12336,-9.37471 3.03975,-4.04533 4.73355,-5.70391 7.07067,-6.92363 1.46468,-0.7644 1.80783,-0.83414 4.1116,-0.83564 2.35584,-0.002 2.61707,0.0545 4.16374,0.89329 3.0152,1.63518 5.2575,4.77843 6.03903,8.46551 0.50965,2.40442 0.48297,3.65108 -0.19739,9.22296 -0.51089,4.18396 -0.54824,5.10588 -0.28112,6.9386 0.92287,6.33185 5.49622,9.46736 11.2161,7.68982 3.34968,-1.04096 5.51234,-2.98093 9.88836,-8.87015 3.61159,-4.86042 6.63006,-7.80539 9.55627,-9.32351 3.15923,-1.63903 4.68553,-1.99634 7.99992,-1.87277 2.49303,0.0929 3.00728,0.19925 4.53411,0.93727 3.74078,1.8082 6.11164,4.75451 10.1714,12.64026 4.89937,9.51659 8.74985,15.09637 12.80912,18.56175 6.77701,5.78549 13.0852,8.05132 23.71608,8.5185 4.61278,0.20271 5.16882,0.28065 6.74688,0.94572 3.26938,1.37788 4.46773,2.55622 4.9975,4.91409 0.51898,2.30981 -0.4486,4.61646 -2.53579,6.04526 -0.82505,0.56478 -1.40809,0.71403 -3.234,0.82788 -2.22028,0.13843 -2.22917,0.14189 -2.73638,1.06493 -1.30119,2.36799 -2.48708,3.02584 -7.86842,4.36487 -2.11005,0.52505 -5.30161,1.42842 -7.09236,2.00751 -6.73508,2.17797 -9.69521,2.64975 -16.58784,2.64374 -7.013,-0.006 -12.47916,-0.77125 -19.31459,-2.70358 -3.50755,-0.99157 -15.76811,-5.66378 -26.45833,-10.08266 -8.71406,-3.60203 -12.74735,-4.68439 -17.4625,-4.68623 -3.76343,-0.002 -6.05476,0.49673 -8.99583,1.95591 -1.30969,0.64979 -2.89654,1.29607 -3.52633,1.43619 -0.6298,0.14012 -1.18094,0.2951 -1.22477,0.3444 -0.43955,0.49449 -2.68469,4.43195 -6.61377,11.59901 -2.59274,4.72943 -5.53711,9.99822 -6.54306,11.70842 -4.92401,8.3713 -11.17395,14.69349 -20.05978,20.29168 -3.87294,2.44001 -7.44122,4.19572 -13.16213,6.47622 -7.43409,2.96342 -7.39109,2.93339 -8.60078,6.00667 -0.53701,1.36431 -1.46238,3.89684 -2.05639,5.62785 -1.28214,3.73634 -1.80772,4.81402 -2.81324,5.76836 -1.67888,1.59342 -4.5487,2.01295 -6.65106,0.9723 z"
         style="display:inline;fill:#3a614f;stroke-width:0.26458335" />
      <path
         inkscape:connector-curvature="0"
         id="path1498"
         d="m -728.95839,-275.04216 c -2.11923,-0.76858 -3.81254,-3.22379 -5.23075,-7.58432 -0.26031,-0.80036 -0.68935,-1.75286 -0.95342,-2.11666 -0.26408,-0.36381 -0.79059,-1.91162 -1.17002,-3.43959 -0.55548,-2.23689 -0.71828,-3.66039 -0.83563,-7.3067 -0.26285,-8.1676 0.81333,-12.14925 6.39029,-23.64272 4.93365,-10.1677 5.8842,-12.99139 6.15222,-18.27578 0.25253,-4.97913 -0.43413,-7.7041 -3.96378,-15.73001 -2.82126,-6.41515 -3.40474,-8.36727 -3.56079,-11.91327 -0.16093,-3.65695 0.17312,-5.31784 1.66517,-8.27928 4.01799,-7.97495 12.24168,-12.55298 29.48934,-16.41635 14.22869,-3.18714 16.87268,-3.87259 21.61868,-5.60455 7.5361,-2.75017 13.93927,-6.90431 18.23589,-11.8308 4.32869,-4.96325 6.7399,-8.87529 12.89711,-20.92472 2.50243,-4.89717 5.1898,-9.85644 5.97192,-11.02061 4.45493,-6.63105 9.46896,-10.69382 15.24242,-12.35062 1.74573,-0.50098 2.72905,-0.60211 5.80586,-0.59711 3.16917,0.005 4.11554,0.11161 6.55241,0.73719 5.19743,1.33425 9.55666,3.37828 16.76587,7.86147 8.57473,5.33238 13.58419,8.30422 16.23693,9.63248 16.62848,8.32611 30.33294,6.86619 42.03173,-4.47757 3.71539,-3.60262 5.18689,-5.49365 10.29288,-13.2272 3.70853,-5.61696 4.76726,-7.01663 6.93692,-9.17077 2.11278,-2.09768 2.97916,-2.75175 4.95549,-3.7411 4.25802,-2.13157 8.0273,-2.26861 11.49924,-0.41808 1.85783,0.9902 3.1101,2.31309 4.14465,4.37838 1.26571,2.52671 1.61922,4.49804 1.90635,10.63017 0.30329,6.47743 0.71553,8.91964 1.94733,11.53651 1.271,2.70011 2.93187,4.40677 5.53958,5.69236 3.40543,1.67885 5.17943,1.9441 11.2875,1.68773 9.40665,-0.39481 13.36661,-0.30366 15.4891,0.35652 2.38903,0.74308 4.60298,2.19262 6.60879,4.32697 0.87598,0.93211 2.2792,2.21106 3.11825,2.8421 0.83904,0.63104 2.08838,1.82365 2.77627,2.65025 1.45767,1.75157 5.28167,7.89234 5.77612,9.27559 1.57827,4.41523 -2.25949,8.78131 -6.76802,7.69973 -1.73281,-0.4157 -3.13933,-1.68189 -5.01531,-4.51494 -1.43319,-2.16436 -1.51847,-2.24046 -2.69629,-2.40578 -1.68436,-0.23641 -2.61961,-0.77954 -4.01523,-2.33182 -0.65964,-0.73366 -1.30919,-1.33392 -1.44349,-1.33392 -0.13433,0 -0.53284,0.31107 -0.88564,0.69128 -0.3528,0.38019 -1.26651,1.0464 -2.03049,1.48046 -0.76399,0.43405 -1.39825,0.86712 -1.40944,0.96237 -0.0111,0.0952 -0.0787,0.69951 -0.14994,1.34279 -0.24386,2.20155 -1.67645,4.098 -3.75279,4.96802 -0.55063,0.23072 -3.22654,0.51437 -7.14375,0.75724 -15.83167,0.98158 -21.34775,2.23532 -31.39877,7.13657 -4.71998,2.30164 -7.29062,3.98151 -11.90625,7.78052 -4.23008,3.48168 -6.18429,4.81394 -8.98951,6.12851 -4.8918,2.29238 -8.60266,2.40157 -16.80737,0.49456 -5.00604,-1.16356 -22.17568,-5.61106 -25.59759,-6.63063 -1.9277,-0.57436 -5.38051,-1.70595 -7.67291,-2.51465 -14.8653,-5.24404 -19.68164,-6.72199 -21.89512,-6.71879 -1.42951,0.002 -3.68185,0.88769 -4.36563,1.71654 -0.6216,0.75349 -2.93482,1.71555 -4.10104,1.7056 -0.58208,-0.005 -1.53458,-0.18061 -2.11666,-0.39031 -0.58209,-0.2097 -1.26523,-0.38307 -1.5181,-0.38526 -0.25287,-0.002 -2.78088,1.24577 -5.6178,2.77325 -11.83605,6.37286 -15.16715,8.77764 -20.45562,14.76723 -5.44415,6.16593 -8.99267,11.5211 -14.40973,21.74616 -1.23351,2.32833 -3.91446,7.38849 -5.95767,11.24479 -3.58224,6.76103 -7.24795,14.06296 -10.95959,21.83101 -2.36596,4.95168 -4.18709,7.92839 -7.84895,12.82941 -7.53505,10.08489 -16.3627,16.57573 -29.67317,21.81825 -4.77289,1.87987 -7.38042,3.23099 -7.73427,4.00762 -0.20079,0.44069 -0.15047,1.04446 0.19272,2.3123 0.57528,2.12527 0.39187,3.62953 -0.64113,5.25841 -1.35207,2.132 -4.38383,3.12267 -6.83537,2.23357 z"
         style="fill:#499874;stroke-width:0.26458335" />
      <path
         inkscape:connector-curvature="0"
         id="path1485"
         d="m -718.06031,-168.53709 c -2.26671,-0.45556 -3.68975,-1.80988 -5.29919,-5.04322 -0.6157,-1.23693 -1.62167,-3.14193 -2.23549,-4.23333 -0.61382,-1.09141 -1.33802,-2.57969 -1.60933,-3.30729 -0.27131,-0.72761 -1.78218,-3.58511 -3.35749,-6.35 -9.16472,-16.08546 -17.32188,-34.91816 -20.16978,-46.56667 -3.81169,-15.59062 -1.91721,-29.23621 5.61493,-40.44322 1.84238,-2.74126 6.11466,-7.42284 8.00261,-8.76929 0.61213,-0.43656 1.48847,-1.10307 1.94742,-1.48114 2.80995,-2.31476 8.81807,-5.20532 17.32458,-8.33501 7.91643,-2.91259 9.8529,-3.69015 13.48303,-5.4139 9.75018,-4.62983 15.73523,-10.73048 21.17689,-21.58592 1.51849,-3.0292 3.59636,-8.10122 7.19216,-17.5559 8.45384,-22.22826 17.1419,-36.70561 28.73922,-47.88958 10.87152,-10.48404 22.62982,-16.48568 36.61128,-18.68705 4.2843,-0.67456 14.03194,-0.67988 18.12396,-0.01 8.71201,1.42643 12.9567,2.98468 28.04583,10.29579 10.72978,5.19886 15.25051,6.97046 21.03475,8.24316 3.50279,0.77071 5.56392,0.92196 6.7465,0.49509 0.66479,-0.23997 3.02599,-0.47797 6.35,-0.64005 2.91042,-0.14191 5.5721,-0.37309 5.91484,-0.51373 0.34277,-0.14064 5.76011,-3.62712 12.03854,-7.74773 6.27846,-4.12061 12.07022,-7.85997 12.87058,-8.30969 0.80036,-0.44972 1.66045,-1.16614 1.9113,-1.59203 0.83978,-1.4258 2.4244,-2.55438 6.81995,-4.85733 2.40109,-1.25799 4.6392,-2.36874 4.97356,-2.46832 0.33438,-0.0996 1.94172,-0.98834 3.57187,-1.97502 12.60483,-7.62925 26.51292,-13.24133 36.83061,-14.86161 3.32605,-0.52232 9.31725,-0.41321 12.30313,0.22407 10.0612,2.14735 16.13731,8.02625 19.21549,18.59184 0.36037,1.23693 1.36155,5.77822 2.22486,10.09177 1.7095,8.54164 2.74029,12.09271 4.56406,15.72332 2.94315,5.85897 7.90001,10.33978 13.91653,12.58002 2.19406,0.81695 2.48481,0.85637 7.70406,1.04468 8.32093,0.30021 10.99272,0.89477 24.85607,5.53124 11.1982,3.74515 11.11668,3.71234 12.5808,5.06194 1.98083,1.82585 2.50688,4.53221 1.3598,6.99555 -0.6641,1.42619 -1.88761,2.62589 -3.26787,3.20428 -1.84314,0.77237 -2.98754,0.51652 -13.87609,-3.10221 -5.72437,-1.90244 -11.59854,-3.74408 -13.05375,-4.09252 -3.9895,-0.95526 -7.83765,-1.25575 -11.87892,-0.92759 -6.72127,0.54578 -10.14558,0.28378 -15.77004,-1.20663 -3.42286,-0.90701 -5.354,-1.59518 -7.52356,-2.68108 -1.81814,-0.90999 -1.84232,-0.91414 -2.62639,-0.45099 -1.87521,1.10772 -6.58524,1.49773 -9.56151,0.79175 -3.18074,-0.75448 -11.4409,-5.10337 -15.3779,-8.09629 -3.4517,-2.624 -5.3816,-4.4772 -12.6931,-12.18869 -3.57065,-3.76601 -6.65678,-6.84729 -6.85802,-6.84729 -0.20127,0 -0.68339,0.41623 -1.07143,0.92497 -0.74782,0.98042 -4.73501,4.50004 -7.39722,6.52974 -3.78609,2.88656 -8.7783,5.38962 -14.69205,7.36653 -11.09038,3.70738 -19.93638,4.10248 -31.9124,1.42532 l -2.16049,-0.48295 -1.39152,0.65101 c -1.82705,0.85475 -3.90403,0.86922 -5.4982,0.0383 l -1.14382,-0.59619 -1.89254,1.03179 c -1.04092,0.56748 -2.84506,1.54448 -4.00923,2.17111 -1.16417,0.62663 -3.78354,2.12317 -5.82083,3.32564 -3.37598,1.99261 -4.14957,2.60572 -8.73125,6.91983 -4.50908,4.24576 -5.0197,4.81326 -4.95554,5.50743 0.38621,4.17722 0.38375,4.26969 -0.1446,5.46412 -0.95215,2.1525 -6.76351,8.45309 -10.90715,11.82537 -4.38529,3.56893 -8.18018,6.27929 -17.33021,12.37745 -5.12027,3.41247 -6.57754,4.32332 -11.93906,7.46238 -1.841,1.07788 -10.29896,5.12878 -13.46094,6.44705 -13.08435,5.45507 -14.63653,6.00373 -28.97188,10.24082 -13.2425,3.91408 -22.07514,6.91033 -28.83958,9.7831 -6.23997,2.65004 -9.41864,4.16582 -13.09688,6.2454 -13.2846,7.51076 -21.07788,13.17087 -28.85004,20.95319 -5.43796,5.44508 -7.50201,8.16987 -10.27136,13.55942 -2.19888,4.27932 -3.45426,7.52483 -5.01477,12.96459 -1.68684,5.88015 -2.33377,16.68832 -1.39363,23.28333 0.23856,1.67349 0.8946,5.60255 1.45786,8.73125 0.56327,3.1287 1.10288,6.46245 1.19915,7.40833 0.26963,2.64925 1.18347,7.67512 1.50468,8.2753 0.15824,0.29567 1.30435,1.73683 2.5469,3.20254 2.77409,3.27229 3.33003,4.41682 3.14289,6.47025 -0.46651,5.11892 -1.08965,7.10393 -2.64073,8.41188 -1.46887,1.23862 -3.45916,1.78826 -5.20491,1.43742 z"
         style="fill:#56c380;stroke-width:0.26458335" />
      <path
         inkscape:connector-curvature="0"
         id="path1472"
         d="m -699.20584,23.650701 c -2.67359,-0.92382 -4.04195,-2.25515 -6.83599,-6.651073 -0.87957,-1.383851 -3.19082,-3.948032 -7.6372,-8.473044 -9.04912,-9.20913843 -11.86939,-12.6947866 -20.8932,-25.822513 -4.19048,-6.09629 -5.2876,-7.90734 -7.29285,-12.03854 -12.31735,-25.37624 -15.98401,-47.57211 -11.01547,-66.681395 1.97381,-7.591426 4.07166,-12.500986 12.58928,-29.462576 7.51106,-14.95716 9.44592,-19.18544 11.41736,-24.95052 3.69528,-10.80614 4.96697,-21.65094 4.98578,-42.51823 0.0135,-15.00317 0.56386,-23.64181 2.01425,-31.61771 3.26976,-17.98086 10.85287,-33.29889 22.31607,-45.07882 10.85319,-11.15307 22.58707,-17.52778 43.39973,-23.57793 2.69213,-0.78259 9.4739,-2.63034 15.0706,-4.10609 20.46276,-5.39571 30.20977,-8.77597 41.9471,-14.54727 12.07781,-5.93872 20.09138,-11.5769 29.33137,-20.63699 5.18155,-5.08068 8.65476,-9.01064 12.81142,-14.49632 5.35098,-7.06185 8.34585,-11.77337 15.04473,-23.66827 5.50619,-9.77708 7.74417,-13.49859 10.22549,-17.00393 10.747,-15.18216 21.96685,-22.02585 36.96512,-22.5474 12.12424,-0.4216 24.71687,3.92801 37.70313,13.02303 5.13649,3.59737 10.0875,7.71028 17.19791,14.28668 5.77861,5.34459 8.02913,7.24359 14.49925,12.2344 3.2449,2.50303 10.38397,6.13394 13.64451,6.93959 2.18038,0.53875 2.88867,0.59266 6.07978,0.46272 4.38367,-0.17849 7.69551,-0.7743 15.72858,-2.8296 7.16497,-1.83319 11.84528,-3.3797 21.97998,-7.26271 15.8846,-6.0861 23.7703,-8.27752 32.9752,-9.16382 8.6405,-0.83196 18.505,0.77848 25.0943,4.09681 7.0462,3.54844 16.3938,10.86846 22.3492,17.50152 4.6083,5.13269 7.6454,8.79205 11.2978,13.61278 4.8759,6.43565 8.3458,10.12331 10.8719,11.55447 3.1187,1.76688 14.0201,4.60744 27.2227,7.09342 7.4787,1.40821 10.8052,2.16578 15.146,3.4493 10.5507,3.11974 20.7007,9.08622 27.35,16.07713 1.989,2.09117 2.6499,3.0323 4.2773,6.09058 1.0587,1.98948 2.0313,4.18332 2.1614,4.87521 0.2506,1.33242 0.052,2.98519 -0.4757,3.96686 -0.1752,0.32572 -0.5555,1.3594 -0.8451,2.29707 -0.4209,1.36254 -0.7651,1.91479 -1.7143,2.75037 -1.3411,1.18048 -3.1226,1.75758 -4.6361,1.50187 -0.6494,-0.1097 -1.5917,0.0191 -2.7981,0.38239 -6.0457,1.82064 -14.214,1.79131 -24.7206,-0.0888 -1.9728,-0.35303 -5.1875,-0.76968 -7.1438,-0.92591 -1.9562,-0.15622 -5.8784,-0.46783 -8.7161,-0.69247 -2.8376,-0.22464 -7.4811,-0.70061 -10.3187,-1.05771 -21.9931,-2.76769 -27.6074,-3.12333 -49.7417,-3.15095 l -16.5364,-0.0206 -11.5094,1.00439 c -12.4054,1.08258 -22.1589,2.19775 -28.3857,3.2455 -10.0194,1.68591 -26.49337,5.43607 -37.09869,8.44524 -14.55227,4.12907 -34.15904,11.38409 -48.28646,17.86724 -1.96453,0.90154 -4.82203,2.2094 -6.35,2.90635 -16.19539,7.38726 -38.10194,19.14551 -61.38334,32.94725 -16.61541,9.85002 -36.06139,23.45767 -53.04896,37.12197 -14.68257,11.81024 -21.21228,17.68594 -33.60481,30.23905 -14.93633,15.1299 -26.72948,29.66799 -35.60369,43.89072 -4.78902,7.67538 -10.48776,17.895395 -14.53201,26.0614 -5.58678,11.280691 -9.01638,19.481671 -12.11587,28.971871 -2.16738,6.6362 -13.68928,47.29769 -14.99455,52.9166685 -2.56876,11.0581245 -5.56492,18.5070745 -9.69766,24.1099485 -1.67247,2.267421 -4.77752,5.196763 -6.47651,6.109993 -2.83258,1.52257 -6.65012,1.94895 -9.28828,1.03738 z"
         style="fill:#7bd5ad;stroke-width:0.26458335" />
      <path
         inkscape:connector-curvature="0"
         id="path1539"
         d="m -347.11438,198.83959 c -5.02047,-0.0967 -21.33203,-0.1929 -36.24792,-0.21389 -25.83352,-0.0363 -37.68267,-0.25344 -45.90521,-0.84124 -2.03729,-0.14565 -7.69277,-0.32427 -12.56771,-0.39695 -10.11749,-0.15082 -14.24864,-0.41328 -21.16667,-1.34475 -9.63562,-1.29738 -19.71778,-3.70628 -33.60208,-8.02838 -4.72943,-1.47225 -11.63506,-3.5727 -15.34584,-4.66765 -3.71078,-1.09495 -9.60437,-2.88782 -13.09687,-3.98415 -3.4925,-1.09635 -9.45142,-2.92653 -13.24206,-4.06707 -17.54121,-5.27793 -23.21425,-7.20412 -30.94336,-10.50631 -2.03729,-0.87043 -5.13292,-2.14995 -6.87917,-2.84342 -4.91061,-1.95009 -7.52057,-3.35217 -12.96458,-6.96463 -9.65608,-6.40747 -16.35345,-11.56724 -21.52822,-16.58567 -4.6207,-4.48109 -8.04916,-8.39674 -12.27824,-14.02292 -3.80016,-5.05555 -12.05513,-17.42577 -12.26345,-18.37698 -0.38634,-1.76405 -0.81508,-2.462 -3.17643,-5.17095 -4.24919,-4.874652 -11.03629,-13.074062 -17.84932,-21.563542 -15.59533,-19.43274 -14.69908,-18.40357 -21.6039,-24.80828 -7.10937,-6.59445 -9.57254,-9.20978 -16.74343,-17.77775 -1.51693,-1.81248 -4.31271,-4.96764 -6.21284,-7.01146 -1.90014,-2.04383 -4.40618,-4.78761 -5.56899,-6.0973 -2.0886,-2.35241 -8.16577,-11.240401 -10.49275,-15.3458318 -4.95215,-8.73699003 -7.9725,-17.2226588 -9.51167,-26.7229182 -0.2135,-1.31781 -0.33753,-4.41335 -0.32863,-8.20208 0.0129,-5.47359 0.0851,-6.4485 0.71859,-9.69674 1.26485,-6.48563 3.28942,-12.39414 6.65001,-19.40743 2.55003,-5.32169 5.44697,-10.35944 12.17215,-21.16719 6.9235,-11.1265 9.70313,-15.95496 12.33712,-21.43072 4.89426,-10.174568 7.25562,-18.837558 7.57266,-27.781238 0.24624,-6.94664 -0.57889,-11.74608 -4.25309,-24.73855 -2.89697,-10.24411 -4.73479,-18.26162 -5.70102,-24.87083 -2.53673,-17.35167 -0.29427,-31.99464 6.63565,-43.32989 8.22769,-13.458 22.02744,-20.3604 44.54039,-22.27829 1.74625,-0.14877 6.985,-0.45045 11.64167,-0.6704 9.68251,-0.4573 13.96167,-0.7657 18.65311,-1.34427 11.23935,-1.38607 21.08608,-4.64663 29.1654,-9.65758 8.96961,-5.56314 15.96826,-14.10224 18.95644,-23.12895 1.50124,-4.53496 1.94641,-7.62969 2.54648,-17.70295 0.43789,-7.35051 0.84982,-10.69023 1.7326,-14.04705 2.28761,-8.6987 7.75623,-14.40089 15.597,-16.26317 4.25659,-1.011 10.14339,-0.643 14.9823,0.93658 6.80807,2.22238 12.78448,6.21331 23.39133,15.62027 9.6901,8.59393 13.7092,11.57967 19.50578,14.49054 2.86964,1.44105 6.12023,2.60052 9.06018,3.23171 3.29059,0.70647 9.17715,0.64669 12.03854,-0.12227 9.04227,-2.42997 15.69487,-9.4994 19.32845,-20.53949 1.79522,-5.45453 2.40014,-9.08719 4.08545,-24.5337 1.09146,-10.00362 2.47457,-15.83469 5.03793,-21.23922 2.24777,-4.73916 5.99385,-9.29582 9.65572,-11.74503 10.91554,-7.30077 23.18038,-3.66391 30.68585,9.0992 2.43834,4.1464 3.55732,7.08543 7.8069,20.50521 1.82049,5.74888 3.52335,10.11498 4.95329,12.7 3.49517,6.31853 7.53991,10.43195 12.63809,12.85268 10.39902,4.93769 23.19065,2.16572 33.92577,-7.35181 5.89471,-5.22611 10.05112,-10.98175 18.15161,-25.1357 2.55767,-4.46899 5.38948,-9.29102 6.2929,-10.71562 7.82172,-12.33382 15.97536,-19.02492 25.63493,-21.03678 3.70091,-0.77081 7.95662,-0.5658 11.38375,0.54838 6.33947,2.061 12.07113,7.14632 16.09008,14.27566 2.6176,4.64348 4.62602,10.08117 7.69003,20.82048 3.66033,12.82941 6.02734,18.51003 10.37326,24.89488 3.76465,5.53086 8.30214,9.55222 13.86183,12.28503 4.22871,2.07859 6.49177,2.66161 10.98021,2.8288 5.80766,0.21634 9.73178,-0.70014 16.00729,-3.7385 4.18727,-2.02732 8.10993,-4.60447 15.76163,-10.35526 9.87981,-7.42537 14.75724,-10.33757 20.31783,-12.13127 3.91343,-1.26238 5.76334,-1.57084 9.42888,-1.57223 4.02005,-0.002 6.93415,0.67465 10.58333,2.45576 7.62445,3.72137 13.5522,10.8676 17.45816,21.04686 1.95998,5.1078 2.99728,9.07985 5.42526,20.77447 1.81134,8.72448 2.26748,10.64278 3.61743,15.21354 3.94619,13.36106 10.68584,23.5598 19.42106,29.38886 5.901076,3.93782 11.270928,5.58848 19.033268,5.85073 8.46236,0.28594 15.86976,-1.46722 25.26771,-5.98019 6.63225,-3.18484 11.78735,-6.49674 24.34165,-15.63822 11.5757,-8.42891 16.8895,-11.83836 23.2834,-14.93933 12.3366975,-5.98319 24.1294,-7.52194 34.2635,-4.47081 11.0699,3.33289 18.8356,11.89806 20.1077,22.17777 0.3605,2.9141 0.155,5.70599 -0.7119,9.66839 -0.8381,3.83112 -1.7766,6.41797 -5.2212,14.39151 -3.3792,7.82206 -3.9399,9.30346 -4.9195,12.99713 -2.3569,8.88783 -1.3552,16.335 3.022,22.46609 1.534,2.14876 5.0226,5.44626 7.3647,6.96137 2.7505,1.77927 6.9595,3.54939 11.0499,4.64701 8.6202,2.31325 10.625,2.43943 38.6291,2.43136 24.844432,-0.007 29.555432,-0.16883 46.169832,-1.58443 4.2201,-0.35957 9.1017,-0.77306 10.8479,-0.91884 9.053,-0.75587 18.5067,-0.59844 24.7814,0.41269 19.632,3.16363 31.9581,13.91158 36.1094,31.48632 0.707,2.99312 0.7451,3.47308 0.743,9.37239 0,5.48253 -0.073,6.54489 -0.6055,8.98485 -3.7951,17.40286 -14.9354,31.42223 -34.1731,43.004548 -7.6503,4.60599 -16.5545,8.70066 -34.3958,15.8171 -16.1767,6.4525 -23.5283,9.69122 -34.925,15.38608 C 79.744618,-43.840692 59.159318,-28.675842 28.067218,0.91804608 23.503618,5.2617362 17.285818,11.261007 -0.37938446,28.364938 l -7.14229904,6.91534 -6.5497985,8.82737 c -3.6023,4.85508 -8.1745,11.03006 -10.1604,13.72219 -8.1142,10.99976 -12.4459,16.08712 -23.7679,27.91354 l -5.3192,5.55625 -1.9523,3.70417 c -3.38702,6.426572 -6.42274,11.038962 -9.92596,15.081262 -0.75671,0.87313 -2.39022,3.01625 -3.63006,4.7625 -2.26472,3.18974 -5.96836,7.40638 -9.02075,10.27028 -4.18685,3.92832 -8.05162,6.75272 -17.779895,12.99369 -1.746238,1.12027 -4.722783,3.04448 -6.614553,4.27603 -3.79378,2.46978 -8.18647,5.11104 -12.03854,7.23855 -1.38245,0.76354 -3.40651,1.9549 -4.49792,2.64745 -7.23119,4.58864 -11.92281,7.30779 -17.59479,10.19755 -1.74625,0.88968 -4.36563,2.28457 -5.82083,3.09977 -3.31754,1.85846 -12.42534,5.29075 -19.16404,7.22202 -15.36565,4.40367 -22.89299,6.10785 -36.79534,8.33051 -9.98551,1.59642 -13.82408,2.26155 -22.88646,3.96558 -3.78354,0.71143 -9.31995,1.73206 -12.30312,2.26803 -2.98318,0.53599 -8.28146,1.61914 -11.77396,2.40699 -3.4925,0.78788 -7.95674,1.79571 -9.9205,2.2396 -3.93645,0.88982 -9.83504,1.81895 -11.55959,1.82086 -0.60897,0 -1.91866,0.17052 -2.91042,0.37743 -2.43462,0.50792 -14.22485,2.11738 -21.38241,2.91885 -16.22449,1.81677 -29.71832,2.22928 -56.22396,1.71884 z"
         style="fill:#c7b6b6;stroke-width:0.26458335" />
      <path
         inkscape:connector-curvature="0"
         id="path1552"
         d="m -59.644611,-5.6126391 c -2.26263,-0.91437 -2.54854,-1.12614 -5.7401,-4.2514001 -5.02267,-4.9183428 -5.50088,-5.7381328 -8.67373,-14.8692958 -0.83434,-2.4011 -2.21631,-6.0325 -3.0711,-8.06979 l -1.55414,-3.70417 -0.0546,-4.7625 c -0.03,-2.61938 0.0667,-5.63711 0.21492,-6.70605 0.4314,-3.11102 2.97169,-10.56436 4.97173,-14.58733 0.97822,-1.9676 2.06042,-4.29183 2.40488,-5.16495 0.9362,-2.37297 3.02622,-6.14405 4.47664,-8.07723 2.11757,-2.82244 7.29607,-7.68633 10.21789,-9.59707 3.31124,-2.16541 8.25556,-4.46686 11.4027,-5.30768 1.33334,-0.35623 3.3574,-1.06545 4.49792,-1.57604 1.14051,-0.51059 3.02614,-1.25122 4.19031,-1.64579 2.03528,-0.68985 5.26772,-1.99382 8.33437,-3.36209 2.07804,-0.92718 9.62975,-3.427965 13.36146,-4.424735 5.9261691,-1.58293 9.936747,-2.60638 13.4937449,-3.44347 1.30968896,-0.30821 3.6909377,-0.96632 5.2916677,-1.46246 1.6007301,-0.49615 3.8033806,-1.13891 4.89479,-1.42837 2.3323314,-0.61859 4.5536424,-1.29279 10.8479264,-3.29246 2.546611,-0.80907 7.190051,-2.2007 10.318751,-3.09253 3.1287,-0.89186 9.43901,-2.86817 14.02291,-4.3918 4.58391,-1.52363 10.12032,-3.1792 12.30313,-3.67903 9.98985,-2.28753 14.79275,-3.51128 21.43125,-5.46063 14.33923,-4.21058 23.834291,-6.31134 38.629241,-8.54662 2.47385,-0.37378 5.98622,-0.90922 7.80522,-1.18991 7.1065,-1.09659 14.5636,-1.59229 23.8125,-1.5829 8.5071,0.009 20.3538,0.42416 21.1766,0.74277 1.1912,0.46124 4.9521,3.97391 5.5276,5.16271 1.2725,2.62863 0.4232,5.34479 -2.5354,8.10839 -3.1396,2.93264 -5.2728,3.99097 -10.9396,5.42742 -16.193,4.10464 -34.4098,10.85482 -60.85428,22.549285 -21.234351,9.39044 -33.944201,16.06148 -55.165631,28.955 -2.03729,1.2378 -6.79979,3.89623 -10.58333,5.90762 -17.496643,9.3015 -31.771867,17.76409 -47.7573,28.31131 -8.42655,5.55985 -17.98513,13.0537 -24.60625,19.291093 -0.50932,0.4798 -2.11666,1.744111 -3.57187,2.809562 -1.45521,1.065451 -3.36074,2.6120709 -4.23453,3.4369609 -1.91362,1.80655 -2.59201,2.17453 -5.86758,3.18283 -3.55084,1.09302 -5.30543,1.04953 -8.41873,-0.20865 z"
         style="fill:#906e6e;stroke-width:0.26458335" />
      <path
         inkscape:connector-curvature="0"
         id="path1565"
         d="m -656.65449,-56.211747 c -2.60459,-1.28927 -3.85899,-4.3347 -2.94077,-7.13963 0.54593,-1.66769 11.41995,-17.67141 15.17295,-22.33062 1.99269,-2.47385 4.8693,-6.28385 6.39248,-8.46666 1.52317,-2.18282 3.8407,-5.3975 5.15005,-7.143753 1.30936,-1.74626 3.37743,-4.54424 4.59572,-6.21773 1.21829,-1.67349 2.77514,-3.57849 3.45967,-4.23334 0.68453,-0.65484 1.95289,-2.08359 2.81859,-3.175 0.86569,-1.0914 3.74156,-4.18703 6.39082,-6.87916 2.64927,-2.69214 5.70106,-5.96636 6.78175,-7.27605 4.18543,-5.07227 35.337,-35.51105 40.62168,-39.69218 0.7276,-0.57568 2.48682,-2.14135 3.90938,-3.4793 1.42255,-1.33794 3.86334,-3.35581 5.42395,-4.48415 1.56062,-1.12832 3.37328,-2.48177 4.02813,-3.00763 2.9048,-2.3327 10.03014,-6.94013 14.32964,-9.26595 1.26014,-0.68164 2.74842,-1.59985 3.3073,-2.04044 4.96959,-3.91765 12.77135,-7.80126 28.13597,-14.00558 26.16698,-10.5664 45.09236,-16.44666 67.46875,-20.96302 8.31255,-1.67777 15.06742,-3.14891 24.47396,-5.33019 8.64061,-2.00366 13.66809,-3.03458 19.84952,-4.07022 16.32014,-2.73425 23.47915,-3.12904 53.04319,-2.92504 26.7493,0.18454 29.72062,0.35758 43.16902,2.51372 7.07655,1.13459 8.14885,1.34522 14.11328,2.77233 2.18281,0.52226 5.75468,1.34803 7.9375,1.83499 2.18281,0.48697 5.87375,1.38584 8.20208,1.99748 2.32833,0.61166 5.30489,1.3299 6.61458,1.59609 2.85605,0.58053 7.38291,1.75578 15.74271,4.08713 3.41974,0.95366 8.4799,2.32624 11.24479,3.05012 2.7649,0.7239 6.45584,1.84845 8.20209,2.49904 1.74625,0.65058 4.30609,1.59824 5.68854,2.10595 1.38245,0.50768 5.60916,2.43067 9.39271,4.27329 3.78354,1.84263 8.5036,3.98324 10.48901,4.75694 3.92554,1.52971 8.43785,3.43379 14.4785,6.10963 5.22092,2.31267 22.6441,11.18544 29.66895,15.10895 7.65325,4.27445 8.33225,4.6814 14.14242,8.47606 9.88986,6.45916 21.84252,11.57226 39.30547,16.81406 4.25932,1.27852 27.726079,7.87439 37.701029,10.59677 19.6118,5.35244 33.9362,7.97068 60.1927088,11.00212 24.4436912,2.82212 34.4751612,3.55697 48.5510512,3.55655 20.57357,0 32.14629,-1.7404 65.087531,-9.78485 28.85022,-7.04537 35.35283,-8.16924 47.22813,-8.16258 7.612,0.004 10.0716,0.28634 14.0229,1.60811 3.2268,1.0794 4.9862,2.15212 7.2996,4.45048 3.0681,3.04819 4.5975,6.57212 4.5975,10.59299 0,6.60144 -4.601,12.7277 -10.9314,14.55507 -0.8903,0.25702 -1.6466,0.34798 -1.7804,0.21413 -0.128,-0.12795 -0.3612,-1.18165 -0.5182,-2.34156 -0.493,-3.64244 -2.6548,-7.29237 -5.6752,-9.58218 -1.9426,-1.47269 -5.7525,-3.30152 -8.0731,-3.8753 -0.9459,-0.23383 -3.35186,-0.55843 -5.34656,-0.7213 -8.81335,-0.71956 -18.11623,1.28116 -29.57848,6.36129 -4.63841,2.05579 -7.96737,3.7206 -18.388571,9.19607 -4.97547,2.61422 -21.66284,10.93232 -21.9319,10.93232 -0.0937,0 -0.97189,0.48713 -1.95154,1.08249 -0.97962,0.59537 -2.49552,1.38213 -3.36865,1.74837 -2.97264,1.24688 -25.37817,12.561013 -31.48541,15.899183 -17.25266,9.43017 -27.817792,13.49226 -41.7472128,16.05105 -10.3362572,1.89873 -21.8617472,2.58688 -33.7913372,2.01758 -7.00368,-0.33422 -9.52436,-0.62735 -9.91706,-1.15319 -0.15496,-0.20746 -1.73058,-0.60936 -3.70898,-0.94601 -4.5942,-0.78179 -7.23582,-1.4849 -8.05529,-2.14403 -0.37177,-0.29903 -0.91485,-0.71633 -1.20684,-0.92736 -0.292,-0.21101 -2.31606,-0.87323 -4.49792,-1.47164 -2.18186,-0.59838 -4.96599,-1.56533 -6.18697,-2.14879 -1.22094,-0.58343 -3.14629,-1.40237 -4.27855,-1.81986 -2.26467,-0.83499 -5.17988,-2.23453 -5.81339,-2.79093 -0.3509,-0.30816 -6.18758,-2.90684 -9.78083,-4.35475 -2.10331,-0.84754 -8.283984,-4.09104 -9.921855,-5.20681 -0.873117,-0.59481 -2.420924,-1.53662 -3.439574,-2.092913 -3.61143,-1.97228 -5.45597,-3.19708 -14.39238,-9.55677 -2.70722,-1.92662 -5.99377,-4.06043 -7.30345,-4.74181 -3.0566,-1.59022 -5.572,-3.25136 -11.7357,-7.75009 -0.63381,-0.4626 -2.12209,-1.37629 -3.30729,-2.03042 -1.18521,-0.65413 -2.51212,-1.53286 -2.94868,-1.95275 -0.83174,-0.79997 -4.58761,-3.30155 -7.86339,-5.23735 -5.76048,-3.40413 -8.21738,-4.82748 -10.09952,-5.85092 -1.14834,-0.62442 -2.92359,-1.73164 -3.94499,-2.46047 -1.02142,-0.72882 -3.35608,-2.10515 -5.18816,-3.0585 -1.83205,-0.95335 -4.10493,-2.16278 -5.05081,-2.68761 -2.9735,-1.64984 -25.38834,-12.73045 -33.20521,-16.41478 -1.16417,-0.54872 -4.20026,-2.01549 -6.74688,-3.25953 -11.07604,-5.41076 -16.33246,-7.77166 -21.16667,-9.50704 -2.83765,-1.01864 -5.75468,-2.00332 -6.48229,-2.18815 -0.7276,-0.18484 -3.82323,-1.17491 -6.87916,-2.20015 -3.05594,-1.02523 -6.56829,-2.11571 -7.80521,-2.42329 -1.23693,-0.30758 -3.61818,-0.96729 -5.29167,-1.46603 -9.76228,-2.90936 -13.35574,-3.86842 -17.85937,-4.76657 -1.16417,-0.23217 -3.1287,-0.70295 -4.36563,-1.04616 -1.23693,-0.34325 -3.49911,-0.92964 -5.02708,-1.30313 -1.52797,-0.37349 -4.86172,-1.21346 -7.40834,-1.86661 -7.05837,-1.81031 -11.07471,-2.41472 -18.52083,-2.78717 -2.54662,-0.1274 -5.82083,-0.41183 -7.27604,-0.63212 -8.36465,-1.26611 -17.12143,-1.50966 -29.63334,-0.82415 -7.4636,0.40891 -29.56366,2.04282 -34.13125,2.52341 -11.08644,1.16647 -35.78931,4.54668 -43.454,5.94601 -8.13136,1.48455 -13.39837,2.75106 -26.92516,6.47448 -20.41282,5.61891 -34.03116,9.80062 -42.8625,13.16152 -16.31691,6.20966 -29.81572,12.45875 -44.01498,20.37612 -10.56079,5.88862 -24.37889,15.65984 -41.90793,29.63439 -13.77204,10.97941 -19.53205,16.16396 -30.36912,27.335133 -9.44852,9.73976 -32.70932,32.86646 -33.29165,33.09969 -0.93901,0.37613 -5.81918,1.81012 -6.15951,1.80991 -0.19854,-1.1e-4 -0.86968,-0.25202 -1.49142,-0.55975 z"
         style="fill:#473636;stroke-width:0.26458335" />
      <path
         inkscape:connector-curvature="0"
         id="path1595"
         d="m -599.74728,195.38593 c -1.90968,-2.05816 -3.85656,-4.50397 -6.46105,-8.11681 -4.58735,-6.36338 -6.11667,-8.53675 -6.63833,-9.43398 -0.16113,-0.27712 -1.02772,-1.36348 -1.92574,-2.41411 -2.77164,-3.24265 -5.36702,-6.3482 -7.43858,-8.90082 -1.09141,-1.34483 -2.75829,-3.37397 -3.70417,-4.50919 -0.94589,-1.13522 -2.31511,-2.79617 -3.04271,-3.69099 -0.7276,-0.89485 -1.96388,-2.36736 -2.74728,-3.27229 -0.7834,-0.9049 -1.8834,-2.24059 -2.44446,-2.9682 -1.20832,-1.56702 -2.23774,-2.83242 -5.2593,-6.46493 -2.06968,-2.48817 -3.94391,-4.80473 -5.94706,-7.35063 -0.43322,-0.5506 -1.39428,-1.71548 -2.13567,-2.58861 -0.7414,-0.87312 -1.93475,-2.33613 -2.6519,-3.25114 -0.71715,-0.91498 -1.81447,-2.2842 -2.43849,-3.04271 -1.06907,-1.29942 -2.86602,-3.57185 -4.96119,-6.27385 -0.50777,-0.65485 -1.51902,-1.905 -2.24721,-2.77813 -2.25413,-2.70274 -6.75491,-8.41179 -9.38411,-11.90331 -0.58208,-0.77298 -1.76612,-2.32707 -2.63119,-3.45348 -0.86508,-1.12641 -1.81758,-2.38109 -2.11667,-2.78815 -0.29909,-0.40706 -1.22841,-1.63928 -2.06516,-2.738244 -0.83674,-1.098994 -1.52135,-2.099908 -1.52135,-2.224258 0,-0.12438 -0.25179,-0.452967 -0.55953,-0.730167 -0.30774,-0.277227 -0.66156,-0.742154 -0.78626,-1.033194 -0.1247,-0.291037 -0.58527,-1.124474 -1.02347,-1.852078 -0.43821,-0.727597 -0.91049,-1.579231 -1.04951,-1.892521 -0.13902,-0.313267 -0.37916,-0.647727 -0.53366,-0.743214 -0.1545,-0.0955 -0.28091,-0.40889 -0.28091,-0.696457 0,-0.28758 -0.16931,-0.786547 -0.37625,-1.108864 -0.20695,-0.322287 -0.4498,-1.121774 -0.53969,-1.776611 -0.23263,-1.694758 0.34212,-2.450555 3.45252,-4.540043 4.40216,-2.957255 8.90972,-5.24949 10.32289,-5.24949 0.37287,0 3.13866,1.024704 6.14621,2.277098 11.80819,4.91712 21.29575,8.560729 35.10162,13.480392 4.63924,1.653161 5.97612,2.238148 6.58582,2.881745 1.36194,1.437691 12.42815,18.498266 12.44665,19.188776 0.0225,0.83902 -0.7185,1.00926 -1.89032,0.43429 -0.47865,-0.23484 -1.25723,-0.59357 -1.73017,-0.79711 -0.47295,-0.20357 -1.51645,-0.67982 -2.3189,-1.05833 -0.80246,-0.37854 -1.65108,-0.68824 -1.88584,-0.68824 -0.23475,0 -0.57504,-0.17859 -0.7562,-0.39687 -0.18116,-0.21828 -0.46192,-0.39688 -0.62391,-0.39688 -0.162,0 -0.89156,-0.28183 -1.62125,-0.62627 -2.18386,-1.03089 -3.68398,-1.76138 -4.10484,-1.99887 -0.21828,-0.12316 -0.69453,-0.34608 -1.05834,-0.49538 -1.04618,-0.42926 -2.89901,-1.33773 -4.736,-2.32212 -0.93131,-0.49905 -1.8149,-0.90736 -1.96354,-0.90736 -0.14863,0 -0.45821,-0.16097 -0.68796,-0.35774 -1.22374,-1.04802 -7.56435,-3.05247 -8.06672,-2.55011 -0.15575,0.15574 0.16492,1.08464 0.85569,2.47865 0.60763,1.22626 1.10478,2.34569 1.10478,2.48761 0,0.14192 0.1786,0.40627 0.39688,0.58743 0.21828,0.18116 0.39687,0.50048 0.39687,0.70961 0,0.20915 0.48629,1.41496 1.08063,2.67959 2.10627,4.48173 3.21452,6.80223 3.43584,7.19413 0.12327,0.21828 0.58882,1.17078 1.03455,2.11667 0.44574,0.94588 0.92199,1.89838 1.05834,2.11666 0.13635,0.21828 0.6126,1.17078 1.05833,2.11667 0.44574,0.94588 0.92183,1.89838 1.05799,2.11667 0.13616,0.21828 0.80692,1.46843 1.49057,2.77812 1.92098,3.68004 2.75399,5.25584 3.00714,5.68854 0.1277,0.21828 0.30162,0.57547 0.38648,0.79375 0.0849,0.21828 0.38331,0.75407 0.66321,1.19063 0.2799,0.43656 0.77693,1.32953 1.1045,1.98437 0.78146,1.56221 3.00985,5.39033 3.97043,6.82075 0.41818,0.62272 0.76033,1.19398 0.76033,1.2695 0,0.0755 0.44128,0.81616 0.98063,1.64589 0.53934,0.82976 1.17922,1.86584 1.42193,2.3024 0.24272,0.43657 0.69292,1.21047 1.00046,1.7198 0.30753,0.50932 0.68159,1.16416 0.83124,1.4552 0.14965,0.29105 0.66008,1.24355 1.13427,2.11667 0.70605,1.3 2.42708,4.63992 3.34028,6.48229 0.1082,0.21828 0.55721,1.11125 0.99782,1.98438 1.77183,3.51115 2.99337,6.18667 2.99337,6.55632 0,0.21468 0.17859,0.53856 0.39687,0.71972 0.21828,0.18116 0.39688,0.58864 0.39688,0.90551 0,0.31689 0.10673,0.68927 0.23717,0.82751 0.20677,0.21913 0.57224,1.05749 1.66669,3.82323 0.14396,0.3638 0.42934,0.99854 0.63415,1.41049 0.20482,0.41199 0.37241,0.92941 0.37241,1.1498 0,0.22043 0.16809,0.71679 0.37351,1.10305 0.20545,0.38627 0.57793,1.41666 0.82777,2.28978 0.24982,0.87313 0.55798,1.70061 0.6848,1.83886 0.12681,0.13824 0.23058,0.56197 0.23058,0.94162 0,0.37963 0.17481,0.92136 0.38846,1.20386 0.21365,0.28247 0.39225,0.84883 0.39688,1.25857 0.005,0.40976 0.15131,1.00507 0.32596,1.32292 0.17468,0.31787 0.40461,1.17324 0.51097,1.90084 0.10636,0.72761 0.27511,1.65103 0.37502,2.05203 0.11128,0.44667 0.0545,0.88231 -0.14647,1.12448 -0.63559,0.76584 -1.46061,0.44397 -2.93503,-1.14512 z m 504.91494,1.01561 c -0.730887,-1.17031 0.0161,-5.47405 1.929668,-11.11679 0.666197,-1.96453 1.739741,-5.15009 2.385658,-7.07901 0.645924,-1.92894 1.999738,-5.56035 3.008435,-8.06979 1.00872,-2.50947 2.08838,-5.27703 2.39924,-6.15016 0.31086,-0.87312 2.27438,-5.04031 4.3634,-9.26042 4.89913,-9.897 8.17182,-16.83162 10.05163,-21.29895 0.82666,-1.96454 2.22157,-5.00063 3.0998,-6.74688 2.72693,-5.42211 10.37752,-24.6412 12.62592,-31.71753 1.26696,-3.987566 1.33567,-4.649283 0.48723,-4.693973 -1.07048,-0.0564 -1.24047,0.0358 -3.68869,2.000268 -1.33212,1.068904 -2.86102,2.074978 -3.39757,2.235718 -0.53652,0.16076 -2.43244,1.274751 -4.21311,2.475585 -1.7807,1.200804 -4.51898,3.016705 -6.0851,4.035352 -1.5661,1.01864 -3.32791,2.23903 -3.91515,2.71198 -0.58722,0.47294 -1.1848,0.85989 -1.32794,0.85989 -0.14314,0 -0.40847,0.1786 -0.58963,0.39688 -0.18116,0.21828 -0.51379,0.39687 -0.73916,0.39687 -0.2254,0 -0.59778,0.15899 -0.82751,0.3533 -0.22974,0.19431 -0.83442,0.51157 -1.34374,0.70504 -0.50933,0.19346 -1.12258,0.51847 -1.36279,0.72226 -0.28012,0.23764 -0.49655,0.27381 -0.60341,0.10088 -0.27702,-0.4482 0.14946,-1.66158 1.17282,-3.33669 3.20659,-5.248821 6.82945,-12.757619 9.44652,-19.57907 0.22334,-0.582087 0.50215,-1.296451 0.6196,-1.587491 0.11745,-0.291037 0.31957,-0.880584 0.44913,-1.310101 0.25657,-0.850587 1.45574,-1.666951 2.97813,-2.027501 2.16201,-0.512017 9.16559,-1.109524 12.96458,-1.106054 5.75641,0.005 14.2911,1.149954 18.38854,2.466358 1.91627,0.615627 5.65544,1.860928 6.74688,2.246988 1.76853,0.625544 7.9597,3.687999 8.79739,4.351653 0.73052,0.578697 0.95679,1.423454 0.46302,1.728621 -0.14552,0.0899 -0.26458,0.449947 -0.26458,0.800037 0,0.667414 -0.66516,1.184321 -1.52397,1.184321 -0.63564,0 -1.42717,0.862117 -2.18626,2.381238 -0.32723,0.654847 -1.56683,2.678895 -2.75468,4.497893 -1.18784,1.819001 -2.85438,4.497908 -3.7034,5.953108 -1.39993,2.39948 -6.41106,10.07052 -14.00003,21.43125 -1.55532,2.32834 -4.0463,5.9226 -5.53548,7.98727 -1.48921,2.06465 -4.13589,5.93418 -5.8815,8.59896 -1.74562,2.66475 -5.96482,8.83362 -9.37601,13.70857 -3.4112,4.87494 -7.45382,10.82807 -8.98364,13.22916 -1.52982,2.4011 -3.85903,5.76787 -5.17607,7.48173 -1.31702,1.71387 -5.02034,7.00434 -8.22957,11.75663 -3.209222,4.75229 -5.948567,8.67839 -6.087444,8.72469 -0.13888,0.0463 -0.4004,-0.15267 -0.581157,-0.44209 z m -265.57343,-40.1342 c -1.38592,-0.30496 -2.00697,-0.84381 -4.03593,-3.50173 -1.2011,-1.57343 -3.6114,-4.57415 -5.35623,-6.66822 -1.74479,-2.0941 -3.17306,-3.87861 -3.17396,-3.96557 -0.003,-0.28819 9.2801,-0.48636 16.66716,-0.35584 4.00182,0.0707 10.00813,0.1665 13.34736,0.21286 3.33922,0.0463 6.10539,0.19259 6.14701,0.32498 0.0416,0.1324 -1.00738,1.60994 -2.33109,3.28343 -1.32371,1.67349 -3.59476,4.62119 -5.04679,6.55045 -1.45204,1.92926 -2.89375,3.68543 -3.20382,3.9026 -0.46275,0.32412 -1.63158,0.38936 -6.52414,0.36417 -3.27822,-0.0169 -6.19853,-0.0831 -6.48957,-0.14713 z m -161.83576,-13.05751 c -0.533,-0.28156 -1.84269,-0.74903 -2.91042,-1.0388 -2.12188,-0.57584 -9.34212,-1.59988 -11.29869,-1.6025 -0.67429,0 -1.58316,-0.19381 -2.01972,-0.42868 -0.43656,-0.23487 -1.85105,-0.52933 -3.14328,-0.65434 -1.94474,-0.18812 -2.56839,-0.36772 -3.61976,-1.04238 -2.81871,-1.80877 -9.74527,-9.82763 -15.76044,-18.24588 -3.69797,-5.17533 -4.43417,-6.35339 -4.14882,-6.63874 0.1275,-0.1275 1.07188,0.0576 2.14355,0.42018 1.05359,0.35648 3.07451,0.95888 4.49093,1.33869 1.41642,0.37978 4.30173,1.20669 6.41178,1.83753 10.25176,3.06491 32.54317,8.16713 43.5901,9.97717 1.05503,0.17286 1.91823,0.44315 1.91823,0.60061 0,0.15748 -0.72781,0.99697 -1.61739,1.86555 -1.93837,1.89262 -6.93375,7.60971 -9.96535,11.4051 -1.29164,1.61708 -2.37702,2.73704 -2.64583,2.73013 -0.2507,-0.006 -0.89189,-0.24207 -1.42489,-0.52364 z m 328.86574,-1.2506 c -0.22053,-0.25466 -1.14922,-1.59412 -2.06373,-2.97656 -2.1187,-3.20279 -3.97245,-5.53797 -7.06072,-8.89445 -1.35456,-1.47219 -2.46282,-2.8094 -2.46282,-2.97151 0,-0.16213 0.26789,-0.34935 0.59531,-0.41603 12.26664,-2.49825 31.82001,-7.55687 48.22031,-12.47505 6.70486,-2.01067 23.68587,-7.62069 27.74307,-9.16548 1.87077,-0.71232 3.59233,-1.25834 3.82575,-1.21338 0.30628,0.059 -0.11994,0.70704 -1.53181,2.32912 -2.56352,2.94519 -10.64104,10.91086 -14.84572,14.64014 -1.83123,1.6242 -4.35356,3.88342 -5.60517,5.0205 -1.25161,1.13707 -4.57533,3.78682 -7.38608,5.8883 -5.94103,4.44188 -7.21717,5.06545 -12.73445,6.22247 -14.16643,2.97087 -22.67871,4.47495 -25.32565,4.47495 -0.59209,0 -1.12284,-0.1796 -1.36829,-0.46302 z"
         style="fill:#996528;stroke-width:0.26458335" />
      <path
         inkscape:connector-curvature="0"
         id="path1608"
         d="m -372.09243,155.32508 c -0.6613,-0.69122 -2.32355,-2.56646 -3.69388,-4.16719 -3.32763,-3.88704 -13.09452,-13.65438 -17.04432,-17.04509 -9.64235,-8.27746 -19.81512,-14.72562 -29.23646,-18.53195 -1.52797,-0.61732 -3.13531,-1.26661 -3.57188,-1.44288 -0.43656,-0.17626 -1.86531,-0.64714 -3.175,-1.04645 -1.30968,-0.39928 -2.93301,-0.8976 -3.60738,-1.10741 -0.67437,-0.20979 -1.43782,-0.38143 -1.69653,-0.38143 -0.25874,0 -1.0762,-0.17187 -1.81658,-0.38192 -2.69131,-0.76354 -10.91038,-1.73686 -14.60505,-1.72958 -1.43886,0.003 -3.92581,0.18044 -5.52654,0.39468 -1.60073,0.21423 -3.3187,0.39049 -3.81767,0.39171 -0.49901,0 -1.27291,0.11433 -1.71979,0.25136 -0.44691,0.13702 -1.52691,0.37949 -2.40004,0.53882 -11.37687,2.07597 -24.25943,8.0736 -35.45417,16.50608 -5.57815,4.2018 -12.95902,11.01244 -18.21034,16.80348 -2.31579,2.55381 -2.82403,2.6657 -2.82403,0.62174 0,-1.28325 0.2908,-1.90883 1.08826,-2.34108 0.23473,-0.12724 1.47349,-1.54102 2.7528,-3.14174 9.15543,-11.4557 20.51039,-21.4049 31.98614,-28.02623 2.2093,-1.27474 7.96679,-4.14986 9.81342,-4.90054 2.40343,-0.977 5.71045,-2.13116 7.9375,-2.77021 0.87313,-0.25053 1.95094,-0.56549 2.39514,-0.6999 4.94631,-1.49667 13.98318,-2.26731 21.68195,-1.84894 5.72121,0.31089 8.95593,0.77944 12.07405,1.74895 0.67437,0.20968 1.38874,0.38193 1.5875,0.38278 0.37332,0.003 4.98025,1.41456 5.91761,1.81501 0.29105,0.12433 1.5412,0.61534 2.77813,1.09114 9.38384,3.60966 19.44759,9.92802 29.89559,18.76949 5.31386,4.49681 17.10184,16.5354 21.00336,21.4499 0.51988,0.65485 1.69254,2.1294 2.60594,3.27676 3.45202,4.33629 4.16107,5.33824 4.16758,5.8892 0.004,0.31187 -0.18163,0.63929 -0.41182,0.72761 -0.23019,0.0883 -2.05036,0.1606 -4.04485,0.1606 h -3.62632 z m 25.96076,0.99621 c -0.51147,-0.32536 -0.51417,-0.32105 3.57957,-5.6791 20.71622,-27.11429 42.46518,-44.18711 63.36001,-49.73726 0.94589,-0.25124 2.13651,-0.56755 2.64583,-0.70291 1.67199,-0.444367 4.05435,-0.80193 7.01146,-1.0523 1.60073,-0.13555 3.40964,-0.36563 4.01976,-0.51134 1.42333,-0.33983 4.63752,-0.34099 5.87143,-0.003 0.5262,0.14454 2.38548,0.37771 4.13173,0.51818 1.74625,0.14047 4.00844,0.432333 5.02708,0.648603 3.93042,0.834437 4.40844,0.946947 4.64471,1.092967 0.13407,0.0828 0.9008,0.32177 1.70389,0.53095 3.86956,1.0079 12.53633,4.96075 17.06703,7.78415 11.2699,7.02304 22.60314,17.69808 31.24573,29.43103 3.78613,5.13993 3.41469,4.3157 3.41469,7.57743 0,2.85583 -0.25662,3.74031 -0.94867,3.26953 -0.14822,-0.1008 -1.08109,-1.43346 -2.07303,-2.96143 -8.97533,-13.82506 -20.95514,-25.89553 -33.18249,-33.43359 -3.15814,-1.94699 -8.4987,-4.57782 -11.55311,-5.69127 -1.30968,-0.47741 -2.69856,-0.98819 -3.08639,-1.13501 -0.38785,-0.14684 -1.16176,-0.38341 -1.71979,-0.5257 -3.41545,-0.87088 -4.33758,-1.07929 -5.64486,-1.27579 -0.80036,-0.12034 -1.99099,-0.3469 -2.64583,-0.50348 -1.93093,-0.46175 -13.4634,-0.37909 -16.13959,0.11568 -5.63189,1.04121 -10.58238,2.3614 -13.36145,3.56322 -0.29105,0.12586 -1.48167,0.61188 -2.64584,1.08003 -7.65281,3.07742 -17.29441,9.29799 -26.07691,16.82427 -7.79282,6.67814 -18.88405,18.74282 -26.16245,28.45864 -1.52958,2.04184 -2.74026,2.57857 -5.80416,2.57312 -1.25482,-0.003 -2.46007,-0.11766 -2.67835,-0.25651 z"
         style="fill:#0b0b0b;stroke-width:0.26458335" />
      <path
         inkscape:connector-curvature="0"
         id="path1582"
         d="m -439.03915,254.58544 c -0.43656,-0.1111 -1.28616,-0.21606 -1.88799,-0.23328 -0.60182,-0.0172 -1.43525,-0.20915 -1.85208,-0.42653 -0.41682,-0.21741 -1.13776,-0.39601 -1.60213,-0.39688 -0.46434,0 -0.91787,-0.1207 -1.0078,-0.26622 -0.0899,-0.14552 -0.48392,-0.26837 -0.8755,-0.273 -0.39161,-0.005 -0.94311,-0.18322 -1.22558,-0.39688 -0.2825,-0.21365 -0.83347,-0.38846 -1.22439,-0.38846 -0.39092,0 -0.85899,-0.17859 -1.04015,-0.39687 -0.18116,-0.21828 -0.60542,-0.39688 -0.94282,-0.39688 -0.3374,0 -0.68704,-0.11906 -0.77698,-0.26458 -0.0899,-0.14552 -0.43957,-0.26458 -0.77697,-0.26458 -0.3374,0 -0.76166,-0.1786 -0.94282,-0.39688 -0.18116,-0.21828 -0.59788,-0.39687 -0.92604,-0.39687 -0.32816,0 -0.74488,-0.1786 -0.92604,-0.39688 -0.18116,-0.21828 -0.48242,-0.39687 -0.66945,-0.39687 -0.18703,0 -0.9166,-0.28567 -1.62123,-0.63479 -0.70467,-0.34915 -1.45979,-0.70684 -1.67807,-0.79489 -0.21828,-0.088 -0.99219,-0.51578 -1.71979,-0.95057 -0.72761,-0.43476 -1.56104,-0.91228 -1.85209,-1.06114 -0.29104,-0.14885 -0.88635,-0.50522 -1.32291,-0.79195 -0.43656,-0.28673 -1.07389,-0.64386 -1.41629,-0.79361 -0.3424,-0.14979 -1.80792,-1.07429 -3.2567,-2.05447 -1.44881,-0.98017 -2.84319,-1.90119 -3.09867,-2.04671 -0.9302,-0.52988 -6.83911,-4.98583 -9.06256,-6.83413 -5.62131,-4.67289 -7.21135,-6.07994 -10.80815,-9.56419 -4.14168,-4.01206 -11.23654,-11.29453 -13.36805,-13.7215 -0.7276,-0.82849 -1.78165,-2.01044 -2.34236,-2.62657 -2.34883,-2.58115 -6.79809,-7.92335 -8.97943,-10.78154 -2.93364,-3.84397 -3.07363,-3.96478 -4.59361,-3.96478 -0.76097,0 -1.45717,-0.11906 -1.5471,-0.26458 -0.0899,-0.14552 -0.60299,-0.26837 -1.14009,-0.273 -0.53713,-0.005 -1.20769,-0.18322 -1.49016,-0.39687 -0.28249,-0.21365 -0.82526,-0.38846 -1.20621,-0.38846 -0.38095,0 -0.92371,-0.17481 -1.20621,-0.38846 -0.28247,-0.21366 -0.77443,-0.39225 -1.09328,-0.39688 -0.31882,-0.005 -0.65328,-0.12748 -0.74322,-0.273 -0.0899,-0.14552 -0.38497,-0.26458 -0.65563,-0.26458 -0.43286,0 -1.38155,-0.39521 -2.65166,-1.10461 -0.21828,-0.12192 -0.57547,-0.28604 -0.79375,-0.36473 -0.53409,-0.19248 -3.20802,-1.43219 -3.70417,-1.71733 -0.21828,-0.12546 -1.23031,-0.65992 -2.24895,-1.18771 -1.01865,-0.52779 -2.20927,-1.1869 -2.64584,-1.46471 -0.43656,-0.27779 -0.97234,-0.58354 -1.19062,-0.67942 -0.21828,-0.0959 -0.75406,-0.43336 -1.19063,-0.74999 -0.43656,-0.31663 -0.97234,-0.65556 -1.19062,-0.75319 -0.21828,-0.0977 -0.99219,-0.59304 -1.71979,-1.10088 -0.72761,-0.50781 -1.88892,-1.31215 -2.58067,-1.78737 -2.12048,-1.45671 -7.12819,-5.23499 -8.646,-6.52335 -0.79039,-0.6709 -1.81806,-1.51749 -2.2837,-1.88129 -4.90305,-3.83069 -15.28532,-13.93704 -21.77489,-21.19615 -6.11058,-6.83519 -7.80214,-8.83369 -10.87456,-12.84779 -0.64937,-0.84839 -1.6614,-2.09217 -2.24896,-2.76394 -0.58756,-0.67178 -1.66362,-2.02708 -2.39122,-3.01176 -0.72761,-0.98467 -1.69366,-2.22096 -2.14675,-2.74732 -0.45313,-0.52634 -1.00735,-1.31419 -1.23164,-1.75075 -0.22429,-0.43656 -0.71676,-1.08239 -1.0944,-1.43518 -0.37761,-0.3528 -0.68659,-0.75298 -0.68659,-0.88932 0,-0.13634 -0.47625,-0.81672 -1.05833,-1.51196 -0.58209,-0.69525 -1.05834,-1.38179 -1.05834,-1.52567 0,-0.1439 -0.16861,-0.40156 -0.3747,-0.57258 -0.20608,-0.17106 -0.90382,-1.10837 -1.55052,-2.08293 -1.28241,-1.93257 -6.75272,-10.12963 -7.24094,-10.85025 -1.54057,-2.27401 -3.91843,-6.13047 -4.84332,-7.855036 -0.62435,-1.16417 -1.30575,-2.25343 -1.51423,-2.42057 -0.20849,-0.16716 -1.95039,-0.8065 -3.8709,-1.42081 -3.29598,-1.05423 -10.48717,-3.61889 -12.22309,-4.35922 -0.43657,-0.18619 -2.46063,-0.96398 -4.49792,-1.72844 -2.03729,-0.76446 -4.89479,-1.85561 -6.35,-2.42475 -1.45521,-0.56915 -4.13412,-1.61084 -5.95313,-2.31487 -4.50051,-1.74186 -12.10053,-4.98454 -12.88085,-5.49582 -0.84474,-0.55351 -1.88453,-0.23923 -5.9478,1.79761 -5.19041,2.60188 -10.77195,6.57405 -13.31822,9.47809 -0.87313,0.99581 -2.34329,2.6756 -3.26703,3.7329 l -1.67952,1.92233 0.18179,1.45502 c 0.30088,2.408156 1.41348,6.296746 2.77218,9.688836 1.65079,4.12136 5.1002,11.75412 6.7724,14.98579 0.71808,1.38774 1.46211,2.93555 1.65342,3.43958 0.1913,0.50403 0.45948,1.09501 0.59594,1.31329 0.13647,0.21828 0.35956,0.6532 0.49575,0.9665 0.1362,0.31326 0.37404,0.64772 0.52854,0.74321 0.1545,0.0955 0.2809,0.3637 0.2809,0.59603 0,0.23235 0.29766,0.81269 0.66146,1.28966 0.3638,0.47696 0.66146,0.99658 0.66146,1.15469 0,0.15814 0.28141,0.73329 0.62536,1.27815 0.34395,0.54483 0.93842,1.58427 1.32105,2.30984 0.38262,0.72557 0.99291,1.79546 1.3562,2.37754 0.36328,0.58209 0.77349,1.31467 0.91159,1.62796 0.13809,0.31327 0.37748,0.64773 0.53198,0.74321 0.1545,0.0955 0.2809,0.39013 0.2809,0.65477 0,0.26463 0.16763,0.62026 0.37251,0.79031 0.20487,0.17002 0.56737,0.69061 0.80554,1.15686 0.23817,0.46625 0.66023,1.20492 0.93791,1.64148 0.27768,0.43656 0.74785,1.27 1.04481,1.85208 0.29696,0.58208 0.77548,1.41552 1.06337,1.85208 0.2879,0.43657 0.76829,1.21047 1.06753,1.7198 0.29924,0.50932 0.74909,1.2455 0.99965,1.63591 0.25055,0.39045 1.09013,1.75967 1.86571,3.04271 2.37213,3.92425 3.11197,5.08215 3.57207,5.59057 0.24296,0.26845 0.44174,0.61116 0.44174,0.7616 0,0.15042 1.13108,1.97935 2.51353,4.06429 1.38245,2.08492 2.51354,3.84625 2.51354,3.91401 0,0.0678 0.29767,0.5135 0.66146,0.99047 0.3638,0.47696 0.6663,0.96446 0.67221,1.08331 0.006,0.11885 0.3631,0.62831 0.79375,1.13212 0.43065,0.50382 0.78301,1.04863 0.78301,1.21066 0,0.16203 0.29764,0.57425 0.66144,0.91601 0.36381,0.34177 0.66146,0.7751 0.66146,0.96295 0,0.18786 0.35719,0.74838 0.79375,1.24558 0.43657,0.49723 0.79375,1.01449 0.79375,1.14951 0,0.13499 0.50602,0.8581 1.12448,1.60687 1.64323,1.98943 3.94466,5.0913 6.41615,8.64761 0.58208,0.8376 1.38575,1.91339 1.78594,2.39065 0.40018,0.47725 0.7276,0.98009 0.7276,1.11741 0,0.13732 0.29766,0.52933 0.66146,0.87109 0.3638,0.34176 0.66146,0.73824 0.66146,0.88104 0,0.14279 0.29765,0.64989 0.66146,1.12686 0.3638,0.47696 0.66145,0.94731 0.66145,1.04523 0,0.0979 0.35719,0.629 0.79375,1.1802 0.43657,0.55121 0.79375,1.08575 0.79375,1.18785 0,0.10213 0.26789,0.55877 0.59532,1.01478 0.66105,0.92067 1.14124,1.6959 1.42173,2.29529 0.10215,0.21828 0.43424,0.7516 0.73799,1.18515 0.30374,0.43352 0.67132,0.98292 0.81684,1.22089 1.19794,1.95879 3.09178,5.27844 3.684,6.4575 0.21927,0.43656 0.69316,1.27 1.0531,1.85208 0.64951,1.05037 1.27061,2.27137 2.11407,4.15595 0.24147,0.53954 0.55491,1.05256 0.69653,1.14009 0.14163,0.0875 0.25751,0.37568 0.25751,0.64032 0,0.26463 0.15898,0.61309 0.35327,0.77432 0.19431,0.16127 0.51158,0.77288 0.70506,1.35912 0.19349,0.58623 0.51075,1.19784 0.70506,1.35911 0.19431,0.16124 0.35327,0.56168 0.35327,0.88984 0,0.32817 0.1786,0.74489 0.39688,0.92605 0.21829,0.18116 0.39688,0.57332 0.39688,0.87145 0,0.29816 0.15898,0.73007 0.3533,0.95981 0.19431,0.22973 0.5047,0.83441 0.68976,1.34374 0.18506,0.50932 0.50554,1.31124 0.7122,1.78207 0.69026,1.57258 1.10276,2.57389 1.55481,3.77418 0.24663,0.65484 0.55525,1.39737 0.68584,1.65004 0.13058,0.25271 0.23742,0.74414 0.23742,1.0921 0,0.34795 0.167,0.77123 0.37111,0.94064 0.20411,0.16939 0.43066,0.80905 0.50346,1.42145 0.0728,0.61241 0.3284,1.8728 0.56801,2.80086 l 0.43567,1.68735 -1.01842,1.48653 c -0.56013,0.81762 -1.22178,1.52572 -1.47034,1.57359 -0.48235,0.0929 -4.9638,-4.27244 -10.64051,-10.36482 -3.22098,-3.45683 -4.00763,-4.34562 -8.75866,-9.89576 -2.77291,-3.23929 -10.76877,-11.23254 -24.70491,-24.69681 -11.78623,-11.38717 -25.76258,-25.18207 -44.19186,-43.61816 -29.89062,-29.90162 -36.92089,-37.30841 -42.63029,-44.91349 -4.04672,-5.39033 -5.6935,-8.12909 -6.41059,-10.66145 -0.62441,-2.205086 -0.96865,-7.175386 -0.66886,-9.657286 0.50843,-4.20905 1.30092,-5.86679 4.50748,-9.42875 1.00035,-1.11125 2.26491,-2.55857 2.81012,-3.2163 4.17619,-5.03809 7.45507,-8.54001 14.79148,-15.79766 4.63365,-4.58391 10.20438,-9.94172 12.3794,-11.90625 2.17502,-1.96453 6.58034,-6.13656 9.78958,-9.27116 8.35424,-8.15991 10.7052,-10.36283 12.05271,-11.29369 3.00761,-2.07764 8.31623,-8.54609 8.60743,-10.488 0.2267,-1.5117 -0.32175,-2.76458 -1.836,-4.19412 -0.66021,-0.62328 -2.54317,-3.12603 -4.18435,-5.5616809 -1.64117,-2.43564 -4.86261,-7.1596701 -7.15874,-10.49784003 -2.63747,-3.83441997 -4.36139,-6.61177957 -4.68153,-7.54228997 -0.27871,-0.8100797 -1.17154,-2.6344891 -1.98406,-4.0542391 -1.87265,-3.27213 -2.25142,-4.53581 -2.44073,-8.14308 -0.17343,-3.30483 -0.0206,-3.78577 2.1972,-6.91603 1.79431,-2.53246 2.93311,-3.05051 9.23182,-4.19967 7.56714,-1.3806 17.52471,-2.98241 19.45778,-3.1301 2.66239,-0.20339 8.29949,-1.13049 10.07264,-1.65659 2.13564,-0.63362 3.75387,-1.5381 4.71939,-2.63776 0.94003,-1.07064 3.45332,-5.9849 3.45332,-6.75233 0,-0.47839 -0.19059,-1.01213 -1.10608,-3.09758 -0.27608,-0.62889 -0.86469,-2.05764 -1.30803,-3.175 -0.44334,-1.11733 -2.92503,-6.97264 -5.51487,-13.01176 -5.14554,-11.99861 -7.63617,-18.44648 -7.85683,-20.34005 -0.18695,-1.60438 0.44215,-3.23506 2.36333,-6.12598 1.55067,-2.33339 4.59687,-5.988099 5.3357,-6.401566 0.25507,-0.14274 2.89826,-0.12814 6.57183,0.0363 3.37984,0.15132 12.09828,0.399807 19.37432,0.552237 7.27604,0.15245 13.59762,0.335757 14.04795,0.407377 1.02199,0.16256 1.71695,-0.356787 3.53527,-2.641885 1.796,-2.257057 3.18658,-4.600437 3.18658,-5.369927 0,-0.34322 -0.18759,-0.98677 -0.41685,-1.43013 -0.22927,-0.44333 -0.51468,-1.36017 -0.63425,-2.03737 -0.11956,-0.6772 -0.47367,-2.36238 -0.7869,-3.74483 -0.31323,-1.38245 -0.79386,-3.52558 -1.06807,-4.7625 -0.27423,-1.23693 -1.33367,-5.94061 -2.35436,-10.45266 -2.54851,-11.26604 -3.02774,-14.00707 -3.05281,-17.46088 -0.0232,-3.19167 0.26668,-4.26871 1.71561,-6.37464 1.51564,-2.20289 5.54051,-4.77763 7.87502,-5.03766 1.4863,-0.16558 4.99329,0.5448 19.75699,4.00198 12.03846,2.819 19.13123,4.36761 20.00408,4.36761 1.11067,0 2.88386,-1.10104 5.04043,-3.12979 l 2.14513,-2.01797 -0.15748,-6.62038 c -0.62363,-26.21621 -0.67993,-30.59433 -0.42834,-33.30541 0.42088,-4.53493 1.28484,-6.47374 3.66265,-8.2192 3.957,-2.90473 6.69187,-3.25027 11.91162,-1.50508 3.71959,1.24365 8.9331,3.54248 23.09609,10.18397 5.778,2.70949 10.69198,4.92636 10.91994,4.92636 0.57541,0 4.26718,-1.89341 5.62739,-2.88616 0.66596,-0.48606 1.352,-1.30595 1.68437,-2.01303 0.30842,-0.65614 0.66601,-1.25801 0.79462,-1.33752 0.12865,-0.0795 0.23559,-0.82211 0.23773,-1.65026 0.003,-0.82817 0.18283,-2.01967 0.40161,-2.64779 0.21878,-0.62815 0.33681,-1.24071 0.26231,-1.36125 -0.0745,-0.12057 -0.0127,-0.8568 0.1375,-1.63608 0.39108,-2.0301 1.45934,-8.21605 2.51939,-14.58921 1.10392,-6.63694 2.6171,-14.621 3.13402,-16.53619 0.45529,-1.68685 1.92955,-3.6939 3.74136,-5.09341 2.62782,-2.02983 5.38578,-2.81975 8.24836,-2.36244 3.39701,0.54266 5.70101,2.04843 22.75449,14.87096 6.78577,5.10225 12.47198,9.19654 12.77225,9.19654 0.29766,0 2.27317,-0.43357 4.39,-0.96348 2.97802,-0.74549 3.92919,-1.08968 4.20415,-1.52135 0.19545,-0.30684 2.28303,-6.03475 4.6391,-12.72871 8.05227,-22.87789 9.30923,-25.90233 11.63362,-27.99216 1.55162,-1.39504 3.5478,-2.23198 6.06721,-2.5438 2.18446,-0.27036 4.98129,0.0581 6.29338,0.73914 1.57766,0.81885 6.13638,5.62646 20.57181,21.69496 l 8.1716,9.09603 1.60875,-0.15181 c 3.82135,-0.36063 7.3489,-1.0522 7.78446,-1.52612 0.41304,-0.44945 3.30295,-5.12919 11.99528,-19.42457 4.65514,-7.65576 9.39374,-14.78499 10.67708,-16.06353 1.34448,-1.33947 3.13912,-1.91404 5.94466,-1.90322 3.98277,0.0154 6.54359,1.24345 8.70344,4.17394 1.62007,2.19812 6.20908,9.51119 11.39457,18.15843 8.27683,13.80231 9.32572,15.19336 12.07873,16.01883 0.8567,0.25689 2.22182,0.52102 3.03364,0.58701 2.91123,0.23661 4.274,-0.95097 15.41187,-13.43084 10.08571,-11.30091 14.80968,-16.03624 17.11108,-17.15224 2.09428,-1.01557 4.64574,-1.31689 7.27454,-0.8591 2.27938,0.39694 3.4535,0.99862 4.8007,2.46017 2.26526,2.4575 4.10221,6.5966 8.9566,20.18138 3.2444,9.07931 5.54572,15.23347 6.98989,18.69252 0.79158,1.8959 0.9235,2.0574 2.08817,2.55625 1.50757,0.64571 5.78985,1.90227 6.4828,1.90227 0.27495,0 5.45933,-3.67077 11.5208,-8.15726 16.79247,-12.42917 19.87143,-14.50975 23.21333,-15.68595 2.26745,-0.79804 3.96086,-0.61064 6.80236,0.75279 4.97146,2.38548 6.1732,4.56922 7.97493,14.49147 0.36995,2.03729 1.44431,8.60541 2.3875,14.59581 2.19974,13.97101 2.59045,15.88101 3.57706,17.48621 0.58573,0.953 2.63681,2.35985 5.16602,3.54343 l 1.6529,0.77349 2.08381,-0.76875 c 2.61966,-0.96644 7.18449,-2.9959 16.77434,-7.45765 14.24305,-6.62668 17.27004,-7.74645 21.02821,-7.77902 2.14152,-0.0185 2.51752,0.0549 3.73452,0.72957 1.8473,1.02401 3.9406,2.90245 4.7238,4.23875 1.3672,2.33307 1.5649,4.02487 1.581,13.53191 0.01,4.80218 -0.092,12.77937 -0.2218,17.72708 -0.1302,4.94771 -0.1471,10.2965 -0.038,11.88619 l 0.1992,2.89034 1.3459,1.42314 c 1.5577,1.64698 4.629,3.77637 5.447,3.77637 0.30871,0 5.5022,-1.24553 11.5413,-2.76781 11.5393,-2.9088 21.4,-5.18281 24.7357,-5.70441 4.884173,-0.76375 9.641846,1.82208 11.926834,6.48229 0.865394,1.76501 0.905194,1.97522 0.901694,4.7625 0,3.3632 -0.322497,5.04042 -4.905873,25.85569 -1.592691,7.23255 -2.895682,13.63454 -2.895682,14.22659 0,0.69962 0.242497,1.46834 0.692497,2.19573 1.032094,1.66833 3.895376,5.451752 4.226376,5.584632 0.158697,0.0637 6.171364,-0.0476 13.361322,-0.247307 23.679624,-0.657857 27.756824,-0.520167 29.741524,1.004394 1.513,1.162285 3.0222,3.054975 4.1672,5.226415 1.5437,2.92751 1.3905,4.55858 -1.2053,12.83441 -1.0432,3.32573 -4.3747,11.44032 -6.1406,14.95636 -0.6562,1.30646 -1.5594,3.29766 -2.0072,4.4249 -0.4477,1.1272 -1.4547,3.43368 -2.2376,5.12545 -1.9226,4.15449 -2.5795,6.6221 -2.4491,9.19893 0.1491,2.94259 1.3419,4.94173 3.6409,6.10177 1.0788,0.54438 6.6993,1.70539 19.3042,3.98761 10.4262,1.88778 14.1431,2.64668 18.3434,3.74531 2.8374,0.74213 3.2327,0.92361 4.5794,2.10211 0.8107,0.70941 1.5886997,1.28985 1.7288997,1.28985 0.2691997,0 0.3299997,0.12718 1.4445991,3.02355 0.5728997,1.48849 0.6867997,2.16252 0.6062997,3.58712 -0.087,1.53344 -0.3399997,2.25179 -2.0131988,5.70772 -1.0527997,2.17443 -1.9133997,4.20378 -1.9124997,4.50966 0,0.30592 -0.2875,0.9607597 -0.6409,1.4552094 -2.0006,2.7993695 -7.5364,11.1702896 -9.3431,14.1281997 -2.5488,4.17279 -6.3536,9.9030909 -7.6097,11.4607909 -1.2857,1.59446 -1.8769,3.72788 -1.4934,5.38928 0.1612,0.69834 0.6228,1.76905 1.0258,2.37942 0.7375,1.11689 5.0731,4.55128 6.9622,5.51505 0.9967,0.50848 8.7408,6.24052 11.233,8.31443 2.6743991,2.22552 4.7919979,3.76431 7.8473961,5.70249 1.7204991,1.0914 3.99249776,2.6644 5.0487971,3.49556 1.0562994,0.83117 2.8729981,2.21835 4.0371975,3.08264 1.1640994,0.86429 2.8159985,2.18538 3.6707979,2.93579 0.8547997,0.75041 2.6406994,2.09108 3.9686994,2.97923 2.6054,1.74244 7.6638,5.54324 14.1886,10.66105 2.255601,1.76918 5.113103,3.91459 6.350004,4.76752 4.577203,3.15627 7.401804,6.91121 7.789804,10.35532 0.3002,2.66541 -0.5646,5.93796 -2.759401,10.44117 -1.326001,2.72084 -1.953101,4.3406 -2.109901,5.45018 -0.375801,2.658726 -1.828802,5.110986 -12.113206,20.444046 -0.7321,1.0914 -2.9148,4.36562 -4.8505,7.27604 -1.9358,2.91041 -4.3062,6.36323 -5.2677,7.67291 -1.8379,2.50354 -2.5594,3.63006 -4.6309997,7.23038 -0.6972997,1.21182 -1.9820988,3.05729 -2.8550985,4.10104 -2.2841985,2.73098 -3.8362975,4.88188 -8.1159949,11.24746 -2.0875988,3.10508 -4.7004973,6.81387 -5.8063967,8.24183 -3.9958982,5.15921 -7.2138982,9.67425 -13.7686982,19.31784 -1.8299,2.69213 -4.2255,6.02588 -5.3237,7.40833 -3.6037,4.53673 -10.0154,13.7105 -14.3717,20.56299 -0.7099,1.1167 -2.5055,3.70618 -3.9902,5.75443 -3.9659,5.47124 -7.7233,11.1887 -9.9168,15.08987 -2.0473,3.6412 -5.3611,8.59753 -6.8548,10.25261 -1.343605,1.48873 -2.137402,1.38236 -3.043196,-0.40778 l -0.708297,-1.39996 0.3909,-2.23806 c 1.349491,-7.72599 3.625493,-17.06401 5.437793,-22.31099 0.5597,-1.6202 1.8409,-4.74017 2.8472,-6.93327 1.0373,-2.26066 1.9064,-4.55227 2.0069,-5.29167 0.097,-0.71731 0.3662,-1.89952 0.5972,-2.62713 0.6874,-2.16495 8.1795,-17.68681 9.7704,-20.24189 0.3175,-0.51004 0.7753,-1.60806 1.0171,-2.44004 0.2419,-0.83201 0.982,-2.6769 1.6447,-4.09978 0.6627,-1.42287 2.0938,-4.67063 3.1804,-7.21725 1.0866,-2.54661 2.3229,-5.40411 2.7474,-6.35 0.4245,-0.94588 1.2622,-3.14394 1.8616,-4.88455 0.5994,-1.74061 1.684,-4.71718 2.4102,-6.61458 0.7262,-1.89741 1.8522,-5.23576 2.5023,-7.41858 1.3335,-4.47738 1.8128,-5.8212 3.0203,-8.46666 0.4649,-1.01865 1.1399,-2.62599 1.5,-3.57188 0.3601,-0.94588 0.813,-1.89838 1.0065,-2.11666 1.1857,-1.33761 5.463,-17.38257 6.2165,-23.319 0.2842,-2.23954 0.6558,-4.47044 0.8256,-4.957536 0.1912,-0.54858 0.251,-1.64793 0.1572,-2.88845 l -0.1514,-2.00282 -2.2205,-2.22046 -2.2205,-2.22047 -3.8156,-1.31976 c -9.0416,-3.12741 -14.9914,-4.69318 -23.1302,-6.08706 -5.6484,-0.96734 -19.114384,-0.94507 -21.694569,0.0359 -0.416397,0.15833 -0.872594,0.9924 -1.687591,3.08528 -1.750288,4.49509 -3.374279,8.09477 -5.591167,12.39332 -3.602979,6.985856 -4.190776,7.893196 -5.952267,9.187056 -1.792188,1.31636 -2.974382,2.66261 -5.524767,6.29108 -4.694073,6.67851 -6.255367,8.82197 -7.920155,10.87366 -2.887185,3.55796 -11.968376,13.0865 -14.175076,14.87326 -2.0444,1.65542 -8.0049,6.71132 -12.8605,10.90869 -1.4552,1.25796 -3.5388,2.95138 -4.6302,3.7632 -1.0914,0.81179 -3.2345,2.46795 -4.7625,3.68038 -5.0175,3.98134 -8.7692,6.44522 -14.0133,9.20311 -6.66356,3.50432 -11.62105,6.25557 -17.86895,9.91663 -2.7649,1.62015 -7.94412,4.42402 -11.50938,6.23086 -5.80022,2.9395 -6.73285,3.50507 -8.86354,5.37541 -1.30969,1.14967 -2.91703,2.83832 -3.57187,3.75258 -2.35948,3.29417 -3.15312,4.3207 -5.03815,6.51656 -1.05341,1.22708 -2.52364,2.73018 -3.2672,3.34023 -0.74356,0.61005 -2.84676,2.54193 -4.67376,4.29305 -6.63795,6.36222 -11.24448,10.19649 -16.65423,13.86213 -1.67349,1.13398 -6.30732,4.29538 -10.2974,7.02535 -7.69244,5.26306 -10.18836,6.77593 -14.44114,8.75321 -1.45521,0.67657 -3.89599,1.86423 -5.42396,2.63922 -6.06316,3.07528 -18.70051,6.46488 -27.51666,7.38052 -5.41793,0.56272 -14.17535,1.05328 -15.74271,0.88186 -3.62284,-0.39621 -5.64047,-0.69281 -6.46576,-0.95044 -0.66323,-0.20703 -1.18901,-0.20015 -1.94178,0.0254 -0.79139,0.23712 -1.14942,0.23612 -1.53429,-0.004 -0.27612,-0.17245 -1.01669,-0.31353 -1.64568,-0.31353 -0.62899,0 -1.37475,-0.17481 -1.65724,-0.38846 -0.28247,-0.21365 -0.93031,-0.39603 -1.43963,-0.40529 -0.50932,-0.009 -1.15715,-0.19164 -1.43962,-0.40529 -0.2825,-0.21365 -0.84966,-0.38846 -1.26037,-0.38846 -0.41071,0 -0.95351,-0.10311 -1.20621,-0.22913 -0.64995,-0.32411 -2.19271,-0.85696 -2.97297,-1.02679 -0.3638,-0.0792 -0.8963,-0.30525 -1.18334,-0.50237 -0.28705,-0.19711 -0.77849,-0.35838 -1.0921,-0.35838 -0.31358,0 -0.69958,-0.15592 -0.85772,-0.34647 -0.15817,-0.19058 -0.89136,-0.51091 -1.62934,-0.71186 -0.73797,-0.20095 -1.47116,-0.52128 -1.62933,-0.71186 -0.15814,-0.19055 -0.49651,-0.34647 -0.75192,-0.34647 -0.2554,0 -0.61258,-0.1786 -0.79375,-0.39688 -0.18116,-0.21828 -0.52316,-0.40558 -0.75998,-0.41621 -0.23686,-0.0106 -0.78783,-0.24744 -1.22439,-0.52626 -0.43656,-0.27879 -0.94258,-0.56774 -1.12448,-0.64212 -0.1819,-0.0743 -0.47956,-0.19576 -0.66146,-0.26977 -0.1819,-0.074 -0.74745,-0.38663 -1.25677,-0.69474 -0.50932,-0.30808 -1.28323,-0.75629 -1.71979,-0.996 -0.43656,-0.23974 -1.48066,-0.87961 -2.32024,-1.42195 -0.83957,-0.54234 -1.58737,-0.98607 -1.66177,-0.98607 -0.27556,0 -5.63673,-4.12298 -8.45341,-6.50105 -4.25616,-3.59344 -5.52796,-4.95488 -5.33744,-5.71368 0.39825,-1.58602 0.36568,-1.57737 6.94121,-1.84309 12.07453,-0.48792 20.18038,-2.11725 32.58535,-6.54987 14.41421,-5.15059 18.64413,-7.12893 26.92963,-12.5949 2.0373,-1.34401 5.43058,-3.56884 7.54063,-4.94403 2.11005,-1.3752 5.08497,-3.50489 6.6109,-4.73261 3.17289,-2.55277 9.245,-8.57358 14.61887,-14.49535 3.26276,-3.5954 3.66622,-4.14147 3.51896,-4.7625 -0.36293,-1.53033 -0.95449,-1.94162 -4.25755,-2.96021 -1.73852,-0.53616 -3.69675,-1.18229 -4.3516,-1.4359 -2.6516,-1.02687 -7.72721,-2.22959 -12.9636,-3.07189 -1.81848,-0.2925 -4.1402,-0.7031 -5.15938,-0.91244 -3.31282,-0.68043 -12.38721,-1.7871 -18.52181,-2.2588 -5.88738,-0.45273 -27.3572,-0.63593 -32.27917,-0.27549 -4.5575,0.33378 -11.18632,1.42452 -16.60617,2.73249 -1.85735,0.4482 -3.44985,0.74213 -3.53886,0.6531 -0.2476,-0.2476 3.1709,-5.15673 8.78745,-12.6192 4.02966,-5.35406 6.00866,-7.70483 9.58628,-11.38716 12.21245,-12.56999 23.15953,-21.39988 33.53197,-27.0468 10.65821,-5.80252 21.0667,-8.65156 31.60704,-8.65156 3.37146,0 9.22541,0.54187 11.03561,1.02148 0.55161,0.14616 2.07267,0.52332 3.38011,0.83812 8.5307,2.05402 18.52663,7.25223 26.82917,13.95209 9.29159,7.498 18.28631,17.73886 24.75947,28.18971 0.70697,1.14139 1.43928,2.13429 1.62732,2.20644 0.18807,0.0722 1.98451,-0.24455 3.99212,-0.70379 2.00758,-0.45926 5.97188,-1.36202 8.80954,-2.00615 2.83765,-0.6441 5.61879,-1.35477 6.18035,-1.57924 1.16631,-0.46625 3.22897,-1.80806 8.50402,-5.53212 3.55796,-2.51183 4.80576,-3.46787 7.68067,-5.88481 0.72335,-0.60809 2.92251,-2.38644 4.88704,-3.95182 7.58966,-6.04771 14.12716,-11.90747 21.49846,-19.27013 2.8747,-2.87124 5.1624,-5.32437 5.0839,-5.4514 -0.079,-0.12761 -0.4642,-0.10409 -0.861,0.0525 -3.9877,1.57419 -19.8422,6.8286 -27.83803,9.22589 -1.52796,0.45812 -3.07578,0.92807 -3.43958,1.04436 -1.83229,0.58571 -9.08664,2.68875 -10.98021,3.1832 -0.93554,0.24426 -6.56719,1.75522 -8.46666,2.27156 -2.70238,0.73456 -14.55516,3.63746 -18.78542,4.60076 -2.98556,0.67987 -4.8568,1.13146 -5.71651,1.37961 -0.70734,0.20418 -1.11321,0.19016 -1.56977,-0.0542 -0.33867,-0.18124 -2.4692,-2.12979 -4.73454,-4.3301 -14.7507,-14.32726 -29.54917,-22.23277 -45.92293,-24.532566 -5.04431,-0.7085 -15.15126,-0.29784 -19.84375,0.80629 -3.93986,0.927026 -5.11898,1.247126 -8.06979,2.190656 -1.81902,0.58163 -3.42636,1.14321 -3.57188,1.24796 -0.14552,0.10474 -0.8599,0.40415 -1.5875,0.66532 -1.82634,0.65558 -8.56049,4.03061 -11.11827,5.57228 -11.76806,7.09306 -23.32775,17.26414 -35.02895,30.82105 -1.06762,1.23693 -2.13453,2.40715 -2.37091,2.60051 -0.35023,0.28649 -3.68133,0.33546 -17.99627,0.26458 -17.07343,-0.0845 -17.58704,-0.10181 -18.29898,-0.61613 -0.40288,-0.29104 -2.62945,-2.55323 -4.94797,-5.02709 -11.77068,-12.55937 -22.96745,-21.40923 -34.8574,-27.55106 -9.66989,-4.99504 -17.38993,-7.4077 -27.87812,-8.71246 -3.83476,-0.47705 -10.56947,-0.4182 -14.85209,0.12978 -12.41314,1.58834 -25.09822,6.75047 -36.64479,14.91241 -3.35749,2.37332 -8.05654,6.14823 -11.08202,8.9026 -1.29294,1.17705 -2.6461,2.21422 -3.00702,2.30481 -0.57528,0.14438 -2.12534,-0.10866 -6.0193,-0.98269 -0.58208,-0.13065 -1.71317,-0.3583 -2.51354,-0.50588 -0.80036,-0.14759 -2.34818,-0.45927 -3.43958,-0.69263 -1.09141,-0.23336 -2.46063,-0.5193 -3.04271,-0.63542 -1.41899,-0.28311 -7.14359,-1.52006 -8.46667,-1.82944 -0.58208,-0.13612 -1.89177,-0.44251 -2.91041,-0.6809 -1.01865,-0.23836 -2.32834,-0.54184 -2.91042,-0.6744 -1.0704,-0.24373 -6.60651,-1.54688 -9.525,-2.2421 -0.87313,-0.20797 -2.42094,-0.56888 -3.43958,-0.80204 -1.01865,-0.23312 -2.20927,-0.53287 -2.64584,-0.66608 -0.43656,-0.13325 -1.74625,-0.47279 -2.91041,-0.7546 -1.16417,-0.28178 -3.54542,-0.89299 -5.29167,-1.35821 -4.41209,-1.17544 -4.36563,-1.16758 -4.36563,-0.73908 0,0.82325 8.40074,12.7695 12.06249,17.15344 3.13828,3.75721 5.92167,6.72647 6.67258,7.11813 0.39151,0.20421 1.8429,1.44177 3.22535,2.75014 1.38245,1.30839 3.28745,2.99691 4.23333,3.75232 1.6835,1.34442 6.09315,4.37509 6.87917,4.72792 0.21828,0.098 0.75406,0.41365 1.19063,0.70149 0.43656,0.28784 0.97234,0.59287 1.19062,0.67786 0.21828,0.085 0.60362,0.26487 0.8563,0.39978 0.2527,0.13489 0.6005,0.24527 0.77293,0.24527 0.1724,0 0.54221,0.20699 0.82177,0.45998 0.58557,0.52996 0.53123,0.58079 3.61272,-3.3782 0.93393,-1.19991 1.90117,-2.23475 2.1494,-2.29968 0.24823,-0.0649 1.92487,-1.73252 3.72586,-3.70583 15.32927,-16.79573 34.35485,-28.3513 52.35477,-31.79869 5.39007,-1.03232 7.12105,-1.18141 13.62604,-1.17358 6.72659,0.008 6.71098,0.007 13.89063,1.3221 2.28148,0.41801 4.40084,0.92 5.91315,1.40062 8.98612,2.85565 15.08371,5.65626 22.53287,10.34926 9.49502,5.98191 17.46739,12.67132 26.84676,22.52644 5.43558,5.71124 7.73052,8.48809 9.4687,11.45696 0.68159,1.16416 1.73284,2.83104 2.33614,3.70416 1.33948,1.93863 2.02255,3.24784 1.89465,3.63149 -0.0636,0.19074 -1.74828,0.31181 -4.97699,0.35769 -4.36147,0.062 -9.53887,0.40614 -17.5809,1.16869 -4.63503,0.43947 -13.70206,1.04778 -15.34584,1.02952 -0.87312,-0.01 -2.71859,0.16923 -4.10104,0.39759 -2.35789,0.38949 -10.92652,1.23687 -16.27188,1.60917 -5.45502,0.37994 -13.6145,1.19944 -18.52083,1.86015 -1.60073,0.21556 -4.99401,0.57209 -7.54062,0.79227 -5.43116,0.46958 -6.35056,0.5782 -8.99584,1.0627 -1.0914,0.19989 -2.63922,0.44114 -3.43958,0.53613 -2.12728,0.25241 -2.64583,0.66661 -2.64583,2.11333 0,1.14734 0.0527,1.22386 1.65364,2.40342 0.90951,0.67008 2.24851,1.52011 2.97553,1.88899 0.72705,0.36886 2.66907,1.57652 4.31559,2.68373 1.64653,1.10717 3.61154,2.38879 4.36666,2.84802 0.75512,0.45921 1.8492,1.19896 2.43128,1.64389 0.58209,0.44489 2.48709,1.66102 4.23334,2.70248 1.74625,1.04145 4.60375,2.81805 6.35,3.948 3.95584,2.55971 12.12284,6.90282 17.41712,9.26227 2.20777,0.98388 4.96663,2.23105 6.1308,2.77149 3.07948,1.42951 9.30835,3.893 12.96458,5.12738 3.36299,1.13541 10.80664,2.71328 18.25625,3.86988 7.85463,1.21952 8.30559,1.41258 8.37673,3.58682 0.0365,1.114 -0.13967,1.45921 -2.36982,4.64434 -1.32508,1.89248 -2.65877,4.02299 -2.96373,4.73445 -0.42598,0.99378 -1.45192,2.15567 -4.42645,5.01298 -2.12958,2.04566 -5.96373,5.75109 -8.52038,8.23429 -5.11069,4.9639 -6.50158,5.93733 -12.66462,8.86338 -1.83224,0.8699 -3.51658,1.74667 -3.74298,1.94842 -0.56899,0.50694 -2.58212,1.0214 -3.834,0.97978 -0.57259,-0.019 -2.59665,0.27209 -4.49792,0.64701 -4.47701,0.88281 -16.84811,1.47055 -19.06725,0.90588 z"
         style="fill:#e89f4a;stroke-width:0.26458335" />
      <path
         inkscape:connector-curvature="0"
         id="path1734"
         d="m -442.13006,51.290728 c -9.46452,-1.0727 -18.19686,-5.058331 -25.18172,-11.493474 -2.03163,-1.871742 -2.2361,-1.992762 -3.36688,-1.992762 -2.37892,0 -8.75811,-3.775816 -15.51861,-9.185407 -7.4205,-5.937727 -21.32216,-20.5465895 -21.09459,-22.1677195 0.13113,-0.93395 1.32548,-0.7484 5.6705,0.88088 7.07517,2.65303 10.8222,3.4847495 15.69958,3.4847495 4.35515,0 4.43246,-0.17008 1.28389,-2.8245895 -4.3669,-3.6816 -7.40275,-6.5288 -12.26093,-11.49908 -4.86224,-4.97441 -5.62477,-5.93802 -5.32241,-6.7259805 0.24085,-0.62767 1.6065,-0.37113 5.10345,0.9586405 5.48214,2.08471 13.18355,3.45808 15.14263,2.70037 0.53014,-0.20505 0.8264,-0.83106 1.7775,-3.7558705 5.30889,-16.32606 17.72824,-27.76384 33.96654,-31.28198 2.41729,-0.52371 3.5342,-0.6019 8.59896,-0.6019 6.4221,0 8.67585,0.32843 13.69192,1.99536 13.18491,4.38152 24.03251,15.4174 28.59337,29.08964 9.26049,27.76045 -7.44395,57.245725 -35.14154,62.028889 -2.96233,0.511572 -8.83436,0.708395 -11.64166,0.390234 z m -5.16086,-39.134573 c 6.37156,-2.3253395 10.75227,-7.7204095 12.89256,-15.8778595 0.90657,-3.4553 1.14242,-10.1081705 0.48353,-13.6394305 -2.14741,-11.50898 -9.21004,-19.44687 -17.30256,-19.44687 -4.80184,0 -7.99878,1.51738 -11.78618,5.59416 -3.96497,4.26789 -6.02113,9.84898 -6.41626,17.41567 -0.51956,9.9493905 3.0802,19.0213705 9.29442,23.4235105 4.72453,3.3468695 8.538,4.0988495 12.83449,2.5308195 z m 153.28834,38.606412 c -19.07686,-2.00959 -34.93,-16.75728 -39.13622,-36.407222 -2.35243,-10.9898895 -0.92151,-22.1865595 4.12102,-32.24565 6.36754,-12.70227 17.37395,-21.25276 31.21793,-24.25215 2.41284,-0.52277 3.52607,-0.60119 8.46666,-0.5964 4.85447,0.005 6.08285,0.0908 8.37787,0.58732 15.98354,3.45789 28.48449,14.67636 33.81579,30.34665 0.5941,1.74625 1.17327,3.3238305 1.28702,3.5057305 0.31064,0.49681 3.44924,0.41127 6.45003,-0.17576 2.57596,-0.50393 4.15666,-0.98129 9.20367,-2.7794505 2.90105,-1.03359 3.77412,-1.15313 4.00613,-0.54848 0.24927,0.64955 -0.53633,1.59208 -5.70544,6.8451105 -6.57437,6.68108 -10.67666,10.41824 -11.73803,10.69327 -0.83693,0.21688 -0.85016,0.24471 -0.85016,1.79099 v 1.57067 l 2.46975,0.0764 c 3.96992,0.12277 9.20504,-1.00417 14.06671,-3.0281 4.49932,-1.87306 6.03641,-2.36246 6.37048,-2.0284 0.54702,0.54703 0.0556,1.47921 -2.27791,4.32094 -7.56166,9.2086095 -16.43398,17.5420035 -24.54431,23.0534865 -3.54102,2.406359 -5.81057,3.667178 -6.60106,3.667178 -0.3319,0 -1.77959,1.200626 -3.74857,3.108854 -3.79812,3.680963 -6.73848,5.819405 -10.95189,7.965096 -7.55788,3.848841 -15.93694,5.410888 -24.29947,4.529957 z m -5.00544,-40.442512 c 6.14376,-2.4845495 10.37061,-8.0234895 12.34088,-16.1718095 0.86908,-3.5941 0.8909,-10.4388505 0.0441,-13.8132105 -1.38314,-5.51125 -3.52994,-9.5572 -6.78498,-12.78708 -3.35205,-3.32621 -6.35926,-4.62055 -10.73499,-4.62055 -2.62874,0 -4.33596,0.52253 -6.60434,2.02145 -3.59341,2.37442 -5.27802,4.36933 -7.30737,8.65335 -1.71469,3.61969 -2.50209,7.12494 -2.68378,11.94708 -0.24063,6.3876005 0.55772,10.6894305 2.86801,15.4536205 1.16999,2.41269 1.63526,3.05277 3.75766,5.16943 2.50775,2.50095 3.98892,3.46221 7.03287,4.5642495 2.467,0.89315 5.17948,0.75319 8.07196,-0.41653 z"
         style="fill:#020202;stroke-width:0.26458335" />
      <ellipse
         ry="25.390608"
         rx="18.976135"
         cy="-12.230843"
         cx="-451.41824"
         id="path1736"
         style="opacity:1;vector-effect:none;fill:#ffffff;fill-opacity:1;fill-rule:evenodd;stroke-width:0.25134885;stroke-linecap:butt;stroke-linejoin:miter;stroke-miterlimit:4;stroke-dasharray:none;stroke-dashoffset:0;stroke-opacity:1" />
      <ellipse
         ry="25.390608"
         rx="18.976135"
         cy="-13.032652"
         cx="-303.61819"
         id="path1736-7"
         style="opacity:1;vector-effect:none;fill:#ffffff;fill-opacity:1;fill-rule:evenodd;stroke-width:0.25134885;stroke-linecap:butt;stroke-linejoin:miter;stroke-miterlimit:4;stroke-dasharray:none;stroke-dashoffset:0;stroke-opacity:1" />
    </g>
  </g>
</svg>
